<svg width="123" height="123" viewBox="0 0 123 123" fill="none" xmlns="http://www.w3.org/2000/svg">
<path d="M96.5254 69.3593C96.872 67.6148 97.5062 66.2322 98.4281 65.2116C99.35 64.191 100.484 63.5175 101.831 63.191C103.193 62.8675 104.708 62.8715 106.378 63.2032C108.002 63.5259 109.373 64.103 110.489 64.9345C111.621 65.7691 112.418 66.8341 112.88 68.1295C113.356 69.428 113.426 70.927 113.088 72.6264C112.858 73.7845 112.548 74.7156 112.158 75.4197C111.78 76.1419 111.358 76.6522 110.893 76.9505C110.427 77.2488 109.946 77.3486 109.45 77.25C108.893 77.1395 108.475 76.8062 108.194 76.2502C107.914 75.6943 107.865 74.9576 108.047 74.0402C108.543 74.1388 109.047 74.1607 109.558 74.1059C110.069 74.0511 110.519 73.8747 110.906 73.5765C111.294 73.2783 111.55 72.8133 111.676 72.1817C111.864 71.2342 111.744 70.4209 111.316 69.7419C110.901 69.0808 110.213 68.5299 109.253 68.0891C108.293 67.6483 107.084 67.2829 105.625 66.9931C104.181 66.7063 102.95 66.6101 101.93 66.7047C100.908 66.8142 100.091 67.1521 99.4778 67.7182C98.8621 68.2994 98.4437 69.1464 98.2226 70.2593C98.0762 70.9962 98.0559 71.6488 98.1619 72.217C98.2829 72.7882 98.473 73.2872 98.7322 73.7138C98.9884 74.1555 99.2565 74.5371 99.5366 74.8585C99.4224 74.9609 99.2691 75.0242 99.0767 75.0485C98.8813 75.0879 98.6858 75.0881 98.4903 75.0493C98.1745 74.9866 97.8616 74.8306 97.5515 74.5814C97.2385 74.3472 96.9704 74.0048 96.7473 73.554C96.5242 73.1032 96.3806 72.5275 96.3166 71.827C96.2646 71.1444 96.3342 70.3219 96.5254 69.3593Z" fill="white"/>
<path d="M95.8715 75.5123L96.8853 76.1892L96.7321 76.4187C96.6044 76.61 96.4979 76.8247 96.4127 77.0628C96.3317 77.3222 96.3337 77.5816 96.4186 77.8411C96.4949 78.1133 96.7117 78.3686 97.0687 78.607L102.884 82.4892C103.228 82.7191 103.534 82.8129 103.802 82.7705C104.07 82.7282 104.302 82.6156 104.498 82.4329C104.685 82.2629 104.838 82.0886 104.957 81.9101L105.111 81.6806L106.125 82.3574L102.102 88.383C101.148 89.8113 100.235 90.7229 99.3634 91.1178C98.4828 91.5255 97.6472 91.4654 96.8565 90.9375C96.3464 90.597 95.9831 90.2161 95.7664 89.795C95.5626 89.3823 95.4799 88.94 95.5185 88.468C95.5614 88.0172 95.6956 87.5537 95.9213 87.0776L95.8257 87.0137C95.4554 87.4855 95.0448 87.8659 94.5938 88.1548C94.1343 88.4564 93.6472 88.6198 93.1327 88.645C92.6181 88.6702 92.093 88.504 91.5574 88.1464C90.7157 87.5845 90.2484 86.7932 90.1555 85.7725C90.0754 84.7603 90.5121 83.54 91.4656 82.1118L95.8715 75.5123ZM93.054 82.0937C92.6198 82.744 92.4366 83.2947 92.5043 83.7455C92.5636 84.2091 92.9694 84.692 93.7218 85.1943C94.3977 85.6456 94.9674 85.7863 95.4311 85.6165C95.8948 85.4467 96.3352 85.0493 96.7523 84.4245L97.5952 83.162L93.9607 80.7355L93.054 82.0937ZM97.849 85.1843C97.5936 85.5669 97.4594 85.9197 97.4465 86.2429C97.4335 86.5661 97.5269 86.8681 97.7266 87.1489C97.9262 87.4298 98.2046 87.6894 98.5617 87.9277C98.8933 88.1491 99.2079 88.2854 99.5055 88.3366C99.8159 88.3964 100.105 88.3498 100.373 88.1969C100.645 88.0652 100.914 87.8017 101.177 87.4064L102.033 86.1247L98.7047 83.9027L97.849 85.1843Z" fill="white"/>
<path d="M88.7143 87.1969L89.4096 88.1981L89.3529 88.2375C89.1262 88.3949 88.9573 88.5682 88.846 88.7575C88.7309 88.9681 88.6546 89.2078 88.6172 89.4764C88.5798 89.7451 88.571 90.0685 88.5909 90.4467L88.7782 94.2649C89.1794 94.1169 89.6138 94.03 90.0812 94.0041C90.5573 93.9909 91.0355 94.0881 91.5159 94.2959C91.9836 94.5125 92.4011 94.8853 92.7684 95.4142C93.162 95.981 93.3558 96.5558 93.3498 97.1386C93.3526 97.7341 93.1261 98.3487 92.6702 98.9826C92.2144 99.6165 91.4889 100.279 90.494 100.97L84.4864 105.142L83.7911 104.14L83.8478 104.101C84.213 103.847 84.4784 103.598 84.6438 103.352C84.8055 103.128 84.8754 102.893 84.8538 102.646C84.8408 102.413 84.7425 102.164 84.5589 101.899L80.597 96.1937C80.4396 95.967 80.2575 95.7855 80.0508 95.649C79.844 95.5126 79.6025 95.447 79.3261 95.4522C79.0459 95.4788 78.7357 95.6101 78.3957 95.8463L78.1501 96.0168L77.4548 95.0156L83.5191 90.8045L84.2144 91.8057L84.1388 91.8582C83.8617 92.0506 83.6273 92.2507 83.4356 92.4585C83.24 92.6877 83.1342 92.9385 83.1181 93.211C83.0981 93.5049 83.215 93.8345 83.4686 94.1997L84.9904 96.3912L85.9916 95.6959L85.5761 91.9522C85.5044 91.3113 85.5763 90.7293 85.7918 90.2063C85.9948 89.692 86.3383 89.1921 86.8225 88.7066C87.3155 88.2336 87.9461 87.7303 88.7143 87.1969ZM87.0112 96.6399L85.7644 97.5058L88.1782 100.982L89.4251 100.116C89.7903 99.8624 90.0338 99.5813 90.1555 99.2728C90.2735 98.9856 90.2953 98.681 90.2212 98.3592C90.1344 98.046 89.9773 97.7258 89.75 97.3983C89.5051 97.0457 89.2423 96.7614 88.9618 96.5455C88.6774 96.351 88.3756 96.2525 88.0566 96.2501C87.7249 96.2564 87.3765 96.3863 87.0112 96.6399Z" fill="white"/>
<path d="M71.9645 96.6699C73.064 96.3898 73.971 96.2854 74.6853 96.3565C75.3997 96.4277 75.9453 96.6131 76.3223 96.9126C76.703 97.227 76.9426 97.5774 77.041 97.9637C77.1053 98.2163 77.1063 98.4376 77.044 98.6275C76.9705 98.8361 76.8709 99.0039 76.745 99.1309C76.4945 98.8308 76.1698 98.5812 75.771 98.3822C75.3722 98.1832 74.8994 98.0663 74.3525 98.0315C73.8095 98.0117 73.2036 98.0869 72.535 98.2572C71.7623 98.4541 71.2172 98.7986 70.8996 99.291C70.5819 99.7833 70.4988 100.327 70.6502 100.921C70.8319 101.634 71.1706 102.094 71.6661 102.3C72.1654 102.521 72.8608 102.518 73.7524 102.291L75.2457 101.91L75.6091 103.337L74.0935 103.723C73.5288 103.866 73.117 104.082 72.858 104.37C72.6027 104.672 72.4518 105.011 72.4051 105.387C72.3622 105.778 72.3881 106.159 72.4827 106.53C72.5736 106.887 72.7106 107.176 72.8938 107.399C73.0808 107.636 73.3047 107.8 73.5655 107.892C73.8262 107.984 74.1274 107.986 74.4692 107.899C74.9149 107.786 75.2394 107.568 75.4425 107.248C75.6456 106.927 75.7555 106.551 75.7721 106.119C75.7739 105.692 75.7181 105.255 75.6045 104.809C76.2137 104.654 76.7062 104.6 77.082 104.646C77.4579 104.693 77.7503 104.816 77.9595 105.016C78.1538 105.22 78.2926 105.485 78.3759 105.812C78.4667 106.169 78.4294 106.55 78.2638 106.956C78.0872 107.381 77.7172 107.792 77.1537 108.188C76.5902 108.585 75.7661 108.922 74.6814 109.198C73.1361 109.592 71.883 109.642 70.9222 109.349C69.9614 109.055 69.3599 108.433 69.1177 107.482C68.9776 106.933 68.9734 106.419 69.1052 105.943C69.2259 105.485 69.4546 105.078 69.7915 104.724C70.1172 104.388 70.5213 104.111 71.0038 103.893L70.9754 103.781C70.2914 103.829 69.6962 103.791 69.1898 103.666C68.6686 103.546 68.24 103.323 67.9038 102.997C67.5714 102.686 67.3371 102.263 67.2008 101.729C67.0154 101 67.068 100.307 67.3589 99.6471C67.6387 99.0062 68.1642 98.4293 68.9354 97.9163C69.6918 97.4072 70.7015 96.9917 71.9645 96.6699Z" fill="white"/>
<path d="M60.7045 98.4137C61.3761 98.4786 61.974 98.6673 62.4983 98.9799C63.006 99.3063 63.3934 99.7597 63.6608 100.34C63.9267 100.936 64.0191 101.653 63.9379 102.493C63.8184 103.729 63.3025 104.603 62.3902 105.116C61.478 105.629 60.1643 105.833 58.449 105.729L56.5651 105.616L56.4434 106.875C56.3932 107.394 56.3802 107.847 56.4043 108.234C56.427 108.637 56.5272 108.955 56.705 109.188C56.8812 109.436 57.183 109.581 57.6104 109.622C57.9919 109.659 58.3075 109.581 58.5571 109.39C58.8067 109.198 58.9957 108.916 59.1242 108.544C59.2512 108.186 59.3375 107.771 59.3833 107.298C60.4059 107.397 61.1655 107.586 61.6623 107.865C62.1591 108.144 62.3802 108.566 62.3256 109.13C62.271 109.695 62.0137 110.125 61.5539 110.419C61.0941 110.714 60.4982 110.902 59.7661 110.986C59.0326 111.084 58.2384 111.092 57.3838 111.01C55.7812 110.855 54.6112 110.449 53.8736 109.792C53.1208 109.134 52.8138 108.087 52.9525 106.653L53.517 100.815C53.5569 100.403 53.5504 100.071 53.4977 99.8195C53.4283 99.5817 53.2996 99.3998 53.1115 99.2738C52.9067 99.1616 52.6364 99.0892 52.3006 99.0568L52.209 99.0479L52.3264 97.8346L56.5845 98.2463L56.9125 99.8724L57.1185 99.8924C57.4942 99.5128 57.8479 99.2004 58.1797 98.9552C58.4947 98.7237 58.849 98.5654 59.2423 98.4802C59.6372 98.3798 60.1246 98.3576 60.7045 98.4137ZM59.2838 99.9631C58.8412 99.9203 58.4486 99.9979 58.1059 100.196C57.7618 100.409 57.4844 100.729 57.2737 101.155C57.0478 101.58 56.906 102.09 56.8485 102.685L56.6824 104.402L57.7193 104.433C58.3327 104.462 58.8253 104.386 59.197 104.206C59.5672 104.042 59.847 103.776 60.0366 103.41C60.2246 103.058 60.3452 102.608 60.3983 102.058C60.4396 101.631 60.4293 101.26 60.3672 100.946C60.3037 100.647 60.1801 100.412 59.9964 100.24C59.8113 100.083 59.5738 99.9911 59.2838 99.9631Z" fill="white"/>
<path d="M49.5556 97.0308L49.0229 98.1272L48.7953 98.0166C48.5195 97.8826 48.2545 97.7965 48.0003 97.7582C47.7394 97.7338 47.4898 97.7915 47.2514 97.9313C47.0129 98.0712 46.8066 98.3204 46.6324 98.679L43.024 106.106L44.2239 106.689C44.4721 106.809 44.6956 106.858 44.8942 106.835C45.0928 106.813 45.3007 106.701 45.5178 106.499C45.7145 106.305 45.9476 106.001 46.2172 105.586L46.6317 104.944L48.0591 105.637L46.2162 109.114L35.5621 103.938L37.1568 100.34L38.5842 101.034L38.3353 101.757C38.176 102.225 38.0808 102.596 38.0496 102.871C38.0118 103.159 38.0452 103.389 38.15 103.559C38.2549 103.729 38.4383 103.878 38.7003 104.005L39.8795 104.578L43.4879 97.1512C43.6621 96.7927 43.7374 96.4798 43.7138 96.2126C43.6764 95.9387 43.5744 95.7101 43.4077 95.5269C43.2343 95.3574 43.0235 95.2124 42.7753 95.0917L42.5477 94.9812L43.0804 93.8847L49.5556 97.0308Z" fill="white"/>
<path d="M39.8217 92.6592L38.9411 93.5022L38.7662 93.3194C38.5011 93.0425 38.2503 92.8581 38.0137 92.7662C37.7665 92.6632 37.523 92.6416 37.2831 92.7015C37.0321 92.7719 36.7903 92.9185 36.5577 93.1412L31.5569 97.9286C31.3021 98.1725 31.1396 98.4129 31.0694 98.65C30.9881 98.8976 30.999 99.1419 31.1022 99.3827C31.1943 99.6342 31.3676 99.8928 31.6221 100.159L31.7971 100.341L30.9165 101.184L25.6679 95.7017L26.6149 94.7951L26.8216 95.0111C27.0549 95.2548 27.3055 95.45 27.5734 95.5968C27.8197 95.7432 28.0784 95.8139 28.3496 95.809C28.6102 95.793 28.8735 95.6577 29.1393 95.4032L31.0167 93.606L29.4898 92.011C28.8324 91.3243 28.2889 90.6346 27.8594 89.942C27.4298 89.2494 27.2226 88.5563 27.2378 87.8625C27.2418 87.1794 27.5927 86.5038 28.2905 85.8358C29.0326 85.1254 29.9498 84.8417 31.042 84.9848C32.1236 85.1169 33.2688 85.8142 34.4776 87.0769L39.8217 92.6592ZM33.9275 88.4313C33.3973 87.8775 32.8935 87.6063 32.4161 87.6176C31.9276 87.6394 31.3788 87.942 30.7696 88.5252C30.249 89.0235 30.0105 89.5172 30.0541 90.0062C30.0976 90.4951 30.3633 90.9944 30.8511 91.5039L31.9803 92.6835L35.1204 89.6774L33.9275 88.4313Z" fill="white"/>
<path d="M28.1168 77.3436C28.572 78.3662 28.7921 79.3508 28.777 80.2973C28.748 81.2502 28.413 82.1378 27.7721 82.9602C27.1109 83.7748 26.0658 84.5001 24.637 85.1361C23.1241 85.8096 21.8407 86.1123 20.7866 86.0444C19.7123 85.9688 18.8216 85.6268 18.1145 85.0184C17.4011 84.3961 16.8292 83.6016 16.399 82.6351C15.9937 81.7245 15.7519 80.9174 15.6736 80.2138C15.5954 79.5101 15.6558 78.9294 15.8548 78.4715C16.0336 78.0059 16.3331 77.6796 16.7533 77.4925C17.0475 77.3616 17.369 77.3108 17.7177 77.3402C18.0462 77.3618 18.3888 77.5282 18.7455 77.8394C19.0882 78.1568 19.4217 78.6797 19.7459 79.4081C19.2557 79.6263 18.8261 79.8679 18.4573 80.1328C18.0885 80.3977 17.8216 80.6843 17.6568 80.9926C17.4919 81.301 17.4874 81.6303 17.6433 81.9805C17.8241 82.3867 18.1232 82.6816 18.5406 82.865C18.9377 83.0407 19.5098 83.063 20.2571 82.9318C20.998 82.7866 21.9709 82.4458 23.1756 81.9096C24.1141 81.4918 24.8612 81.0586 25.4167 80.6099C25.966 80.1472 26.3207 79.662 26.4808 79.1544C26.6269 78.653 26.5689 78.1081 26.307 77.5198C26.0888 77.0295 25.8223 76.6194 25.5077 76.2895C25.1728 75.9519 24.8137 75.6921 24.4307 75.5101C24.0336 75.3344 23.6396 75.2413 23.2488 75.2306C23.2721 75.0188 23.356 74.8304 23.5007 74.6653C23.6314 74.5064 23.7948 74.3833 23.9909 74.296C24.3411 74.1402 24.7638 74.1282 25.259 74.2603C25.7339 74.3846 26.2245 74.6949 26.7307 75.1912C27.2308 75.6736 27.6928 76.391 28.1168 77.3436Z" fill="white"/>
<path d="M25.0947 72.7718L23.878 72.847L23.8737 72.7782C23.8567 72.5027 23.7961 72.2683 23.692 72.075C23.5716 71.8674 23.4063 71.6779 23.196 71.5065C22.9857 71.3352 22.7137 71.16 22.38 70.9809L19.0183 69.1608C18.9367 69.5806 18.7858 69.9971 18.5655 70.4101C18.33 70.8241 17.9988 71.1826 17.572 71.4855C17.1442 71.7731 16.609 71.9367 15.9662 71.9765C15.2775 72.019 14.6856 71.8866 14.1903 71.5793C13.6798 71.2728 13.2717 70.7604 12.9661 70.0419C12.6606 69.3233 12.4704 68.3596 12.3957 67.1505L11.9445 59.8505L13.1611 59.7753L13.1654 59.8441C13.1928 60.288 13.2686 60.6443 13.3928 60.9132C13.5007 61.1676 13.6656 61.3495 13.8874 61.4587C14.0939 61.5688 14.3579 61.6139 14.6792 61.5941L21.612 61.1656C21.8875 61.1485 22.1372 61.087 22.3611 60.981C22.5849 60.875 22.7663 60.7025 22.9052 60.4635C23.0278 60.2101 23.0763 59.8768 23.0508 59.4636L23.0323 59.1651L24.249 59.0899L24.7045 66.4589L23.4878 66.5341L23.4821 66.4422C23.4613 66.1056 23.4118 65.8014 23.3335 65.5297C23.239 65.2436 23.0795 65.023 22.8548 64.8679C22.6139 64.6985 22.2715 64.6275 21.8277 64.6549L19.1648 64.8195L19.24 66.0362L22.6563 67.6224C23.2415 67.8935 23.7018 68.2568 24.0372 68.7123C24.3717 69.1525 24.6209 69.7055 24.785 70.3714C24.9337 71.0381 25.037 71.8383 25.0947 72.7718ZM17.904 66.4183L17.8104 64.9032L13.5864 65.1643L13.6801 66.6794C13.7075 67.1232 13.8216 67.4772 14.0222 67.7413C14.2067 67.9911 14.4557 68.1677 14.7693 68.2712C15.082 68.3595 15.4374 68.3913 15.8353 68.3667C16.2638 68.3402 16.6431 68.263 16.9731 68.135C17.287 67.9927 17.5277 67.7858 17.6952 67.5143C17.8618 67.2275 17.9314 66.8621 17.904 66.4183Z" fill="white"/>
<path d="M28.3554 46.1505C27.844 47.1461 27.2148 47.9348 26.4679 48.5164C25.7073 49.0911 24.8057 49.3864 23.7632 49.4025C22.714 49.398 21.4938 49.0384 20.1026 48.3238C18.6296 47.5672 17.5891 46.7569 16.9813 45.8931C16.3669 45.0087 16.075 44.1003 16.1057 43.168C16.1435 42.222 16.404 41.2785 16.8874 40.3374C17.3428 39.4508 17.8201 38.7565 18.3193 38.2545C18.8185 37.7524 19.3089 37.4355 19.7903 37.3035C20.2652 37.151 20.7072 37.1798 21.1164 37.39C21.4028 37.5371 21.6439 37.7557 21.8396 38.0459C22.0287 38.3154 22.1138 38.6866 22.0949 39.1596C22.0624 39.6256 21.864 40.2132 21.4997 40.9224C21.0223 40.6772 20.5649 40.4939 20.1273 40.3726C19.6897 40.2513 19.2991 40.223 18.9556 40.2878C18.612 40.3527 18.3526 40.5556 18.1775 40.8966C17.9743 41.2921 17.932 41.71 18.0507 42.1502C18.1627 42.5697 18.504 43.0294 19.0746 43.5294C19.6522 44.0157 20.5275 44.5601 21.7005 45.1626C22.6143 45.632 23.4202 45.9425 24.118 46.0941C24.8228 46.2321 25.4232 46.2043 25.919 46.0108C26.4013 45.8103 26.7895 45.4237 27.0837 44.8508C27.329 44.3735 27.4814 43.9088 27.5412 43.4568C27.5944 42.9842 27.5717 42.5417 27.4734 42.1291C27.3613 41.7096 27.187 41.3443 26.9504 41.0331C27.1299 40.9185 27.3294 40.8658 27.5487 40.875C27.7544 40.8772 27.9527 40.9274 28.1437 41.0255C28.4847 41.2006 28.7589 41.5225 28.9664 41.9911C29.1673 42.439 29.233 43.0158 29.1636 43.7214C29.1012 44.4133 28.8318 45.223 28.3554 46.1505Z" fill="white"/>
<path d="M35.3327 36.3247C33.9761 37.5679 32.5505 38.1568 31.0556 38.0916C29.5505 38.0151 28.0675 37.1798 26.6069 35.5859C25.1462 33.9919 24.4315 32.4631 24.4628 30.9993C24.4941 29.5356 25.2389 28.1355 26.6972 26.7992C28.0538 25.5561 29.4795 24.9671 30.9743 25.0323C32.4691 25.0976 33.9469 25.9271 35.4075 27.5211C36.8682 29.115 37.5824 30.6547 37.5501 32.1401C37.5188 33.6039 36.7797 34.9987 35.3327 36.3247ZM34.3877 35.2254C34.8285 34.8213 35.049 34.3697 35.0491 33.8705C35.0501 33.3496 34.8585 32.7661 34.4743 32.1199C34.0798 31.4623 33.5147 30.7323 32.7792 29.9296C32.0333 29.1157 31.3604 28.4949 30.7605 28.0672C30.1502 27.6281 29.5907 27.3921 29.0821 27.359C28.5735 27.326 28.1044 27.5063 27.6748 27.9C27.2339 28.304 27.0078 28.7608 26.9964 29.2704C26.985 29.7799 27.1714 30.3578 27.5556 31.004C27.9295 31.639 28.4893 32.3634 29.2352 33.1773C29.9707 33.9799 30.6488 34.6064 31.2695 35.0568C31.8798 35.4958 32.4444 35.7375 32.9634 35.7818C33.4833 35.8045 33.9581 35.619 34.3877 35.2254Z" fill="white"/>
<path d="M45.7451 27.1482L45.5906 25.939L45.8643 25.904C46.0925 25.8749 46.3243 25.8143 46.5599 25.7223C46.8087 25.6132 47.0032 25.4415 47.1433 25.2072C47.2986 24.9709 47.349 24.6399 47.2946 24.214L46.4195 17.3697C46.3631 16.9286 46.231 16.6209 46.0232 16.4465C45.8287 16.255 45.5983 16.1453 45.3319 16.1175C45.0789 16.0726 44.8383 16.0647 44.6101 16.0939L44.3363 16.1289L44.1818 14.9197L50.1591 14.1555L54.5127 21.3666L56.9806 13.2834L63.0948 12.5017L63.2494 13.7109L62.9528 13.7488C62.6182 13.7916 62.3113 13.8695 62.032 13.9825C61.766 14.0783 61.5554 14.2443 61.4001 14.4806C61.26 14.7149 61.2191 15.0602 61.2775 15.5165L62.1408 22.2696C62.1972 22.7106 62.3237 23.0346 62.5201 23.2413C62.7299 23.4309 62.9765 23.5462 63.26 23.5873C63.5567 23.6112 63.8724 23.6017 64.207 23.5589L64.5036 23.521L64.6582 24.7302L57.2664 25.6752L57.1118 24.4661L57.1802 24.4573C57.5148 24.4145 57.8151 24.3452 58.0811 24.2494C58.3604 24.1364 58.5701 23.9627 58.7101 23.7284C58.8635 23.4769 58.912 23.1307 58.8556 22.6896L57.9572 15.6628L57.7975 15.6832L54.6199 26.0136L53.5705 26.1477L48.0102 16.9345L47.8505 16.9549L48.7488 23.9817C48.8052 24.4228 48.9317 24.7467 49.1281 24.9534C49.3379 25.143 49.5845 25.2584 49.868 25.2994C50.1647 25.3233 50.4804 25.3139 50.815 25.2711L50.8835 25.2623L51.0381 26.4715L45.7451 27.1482Z" fill="white"/>
<path d="M64.1012 24.5849L64.4819 23.4268L64.7441 23.513C64.9626 23.5848 65.1979 23.6299 65.4501 23.6483C65.7217 23.6568 65.9711 23.5855 66.1984 23.4342C66.4402 23.2877 66.6282 23.0106 66.7622 22.6027L68.9169 16.0478C69.0558 15.6253 69.069 15.2907 68.9564 15.0439C68.8632 14.7873 68.7024 14.5892 68.4739 14.4495C68.2648 14.3 68.051 14.1894 67.8325 14.1176L67.5703 14.0314L67.9509 12.8734L74.5714 15.0496L74.1908 16.2077L74.1471 16.1933C73.9577 16.131 73.7345 16.098 73.4775 16.0943C73.2398 16.0807 73.0074 16.1495 72.7801 16.3008C72.5576 16.4375 72.377 16.7171 72.2381 17.1395L71.4193 19.6304L75.5052 20.9735L76.324 18.4826C76.4629 18.0602 76.4833 17.7279 76.3853 17.4859C76.2921 17.2293 76.1459 17.0359 75.9465 16.9059C75.752 16.7612 75.5527 16.6554 75.3488 16.5883L75.3051 16.574L75.6858 15.4159L82.3062 17.5922L81.9256 18.7502L81.6634 18.664C81.4595 18.597 81.2217 18.5592 80.9501 18.5506C80.6833 18.5275 80.429 18.5891 80.1872 18.7356C79.9647 18.8723 79.7841 19.1519 79.6452 19.5743L77.4905 26.1292C77.3564 26.5371 77.336 26.8693 77.4292 27.1259C77.5369 27.3873 77.7027 27.5951 77.9264 27.7494C78.1548 27.889 78.371 27.9924 78.575 28.0594L78.8372 28.1456L78.4565 29.3037L71.836 27.1274L72.2167 25.9694L72.2604 25.9837C72.4643 26.0508 72.6851 26.0911 72.9228 26.1046C73.1652 26.1036 73.4001 26.0275 73.6273 25.8762C73.8546 25.725 74.0353 25.4454 74.1693 25.0375L75.0958 22.2189L71.0099 20.8758L70.0834 23.6944C69.9493 24.1023 69.9289 24.4345 70.0221 24.6911C70.1153 24.9477 70.2592 25.1484 70.4537 25.293C70.6676 25.4279 70.8693 25.5265 71.0586 25.5887L71.1023 25.6031L70.7217 26.7611L64.1012 24.5849Z" fill="white"/>
<path d="M83.4436 33.465C82.0471 32.2669 81.2918 30.9219 81.1777 29.43C81.0736 27.9265 81.7254 26.3543 83.1331 24.7134C84.5409 23.0725 85.9732 22.1801 87.4302 22.036C88.8872 21.892 90.3663 22.4639 91.8675 23.7518C93.264 24.9499 94.0193 26.2949 94.1334 27.7868C94.2475 29.2787 93.6007 30.845 92.193 32.4859C90.7852 34.1268 89.3421 35.0201 87.8635 35.1658C86.4065 35.3099 84.9332 34.7429 83.4436 33.465ZM84.422 32.3952C84.8759 32.7846 85.3506 32.9494 85.8463 32.8898C86.3635 32.8285 86.92 32.5684 87.5156 32.1097C88.1211 31.6393 88.7784 30.9909 89.4872 30.1647C90.2061 29.3268 90.7419 28.5844 91.0948 27.9376C91.4577 27.2792 91.6251 26.6955 91.597 26.1866C91.569 25.6776 91.3338 25.2335 90.8916 24.8541C90.4377 24.4647 89.9572 24.2948 89.4499 24.3445C88.9426 24.3942 88.3912 24.6484 87.7956 25.1072C87.2099 25.5543 86.5577 26.1968 85.8389 27.0347C85.13 27.861 84.5892 28.6091 84.2163 29.2792C83.8535 29.9377 83.6811 30.5272 83.6991 31.0477C83.7388 31.5666 83.9798 32.0158 84.422 32.3952Z" fill="white"/>
<path d="M105.389 38.0071C104.92 37.0933 104.623 36.2976 104.499 35.62C104.382 34.9561 104.393 34.3902 104.532 33.9224C104.678 33.4682 104.907 33.0748 105.219 32.7422C105.531 32.4097 105.881 32.1179 106.269 31.8668L107.583 34.4241C106.908 34.8566 106.481 35.3173 106.302 35.8061C106.142 36.3016 106.213 36.8426 106.515 37.4291C106.816 38.0156 107.211 38.3816 107.699 38.5272C108.208 38.6794 108.835 38.6074 109.579 38.3113L110.893 40.8686C110.463 41.0379 110.022 41.1524 109.57 41.2122C109.118 41.272 108.661 41.2221 108.2 41.0625C107.746 40.9166 107.283 40.6027 106.811 40.1209C106.34 39.6392 105.866 38.9346 105.389 38.0071ZM89.5444 37.665L90.6288 37.108L90.7549 37.3535C90.8599 37.5581 90.9958 37.7555 91.1625 37.9457C91.3498 38.1425 91.5774 38.2669 91.8454 38.3189C92.1205 38.3845 92.4489 38.3192 92.8308 38.123L98.9685 34.9703C99.364 34.7672 99.6084 34.5382 99.7016 34.2835C99.8155 34.0354 99.8402 33.7814 99.7756 33.5215C99.7317 33.2682 99.6572 33.0393 99.5521 32.8347L99.426 32.5892L100.51 32.0322L103.695 38.2312L102.61 38.7882L102.589 38.7473C102.498 38.57 102.362 38.3897 102.182 38.2065C102.023 38.03 101.809 37.9157 101.541 37.8638C101.286 37.8048 100.961 37.8769 100.566 38.0801L96.2081 40.3185L102.367 41.99L102.531 41.9059C102.927 41.7027 103.174 41.4806 103.275 41.2395C103.389 40.9914 103.42 40.751 103.37 40.5184C103.333 40.2788 103.265 40.0635 103.167 39.8725L103.146 39.8316L104.231 39.2746L107.415 45.4737L106.33 46.0306L106.204 45.7851C106.106 45.5942 105.964 45.4003 105.776 45.2034C105.603 44.9996 105.378 44.8649 105.103 44.7993C104.849 44.7403 104.524 44.8125 104.128 45.0156L97.9907 48.1683C97.6088 48.3645 97.3609 48.5866 97.247 48.8347C97.1401 49.0965 97.1121 49.3608 97.163 49.6277C97.2276 49.8876 97.3089 50.113 97.407 50.304L97.5331 50.5495L96.4488 51.1064L93.2646 44.9074L94.3489 44.3504L94.3699 44.3914C94.468 44.5823 94.5969 44.7661 94.7565 44.9426C94.9298 45.1122 95.1504 45.2229 95.4185 45.2749C95.6865 45.3268 96.0114 45.2547 96.3933 45.0586L100.792 42.7991L94.6328 41.1277L94.4282 41.2328C94.0463 41.4289 93.7984 41.6511 93.6845 41.8992C93.5706 42.1473 93.5321 42.3912 93.569 42.6308C93.6265 42.877 93.7009 43.0888 93.7919 43.2661L93.8129 43.307L92.7286 43.864L89.5444 37.665Z" fill="white"/>
</svg>
