<svg width="101" height="101" viewBox="0 0 101 101" fill="none" xmlns="http://www.w3.org/2000/svg">
<path d="M92.0711 64.5691C91.9436 65.1219 91.6885 65.5116 91.3058 65.738C90.9347 65.9829 90.4876 66.045 89.9647 65.9245C88.7993 65.6557 87.8762 64.7112 87.1956 63.0908C86.5299 61.4739 86.402 59.7764 86.812 57.9984C86.9911 57.2215 87.2927 56.4255 87.7166 55.6106C86.9212 54.8292 85.9781 54.3128 84.8874 54.0613C83.8116 53.8132 82.8687 53.9105 82.0585 54.3531C81.2633 54.7992 80.733 55.5974 80.4677 56.7479C79.9923 58.8098 80.8833 60.4393 83.1406 61.6365L82.8978 62.6899C81.5461 62.2051 80.4725 61.2652 79.677 59.8701C78.878 58.4899 78.6938 56.866 79.1245 54.9984C79.3519 54.0122 79.9224 53.176 80.8359 52.4898C81.7644 51.8069 82.916 51.624 84.2906 51.941C85.6652 52.2579 87.0462 53.1271 88.4336 54.5486C89.0576 53.8899 89.7499 53.4123 90.5107 53.1156L91.0435 53.8758C90.9148 53.9562 90.7252 54.062 90.4747 54.1931C89.992 54.4437 89.5341 54.8259 89.1009 55.3397C90.1228 56.5038 90.9414 58.0379 91.5566 59.9422C92.1683 61.8614 92.3398 63.4037 92.0711 64.5691ZM87.724 58.1379C87.4242 59.4378 87.467 60.6514 87.8522 61.7788C88.2374 62.9062 88.8408 63.5646 89.6626 63.7541C89.9465 63.8196 90.1947 63.7666 90.4073 63.5954C90.6314 63.4425 90.7796 63.2091 90.852 62.8954C91.0621 61.984 90.9304 60.8835 90.4566 59.5941C89.9978 58.3082 89.3362 57.2193 88.4718 56.3276C88.1386 56.8173 87.8893 57.4207 87.724 58.1379Z" fill="white"/>
<path d="M81.3463 70.3384C80.1492 69.0125 79.2327 68.1089 78.597 67.6275C77.7166 66.9871 77.0915 66.9211 76.7217 67.4294C76.3248 67.975 76.2041 68.6362 76.3596 69.4129C76.5151 70.1897 76.909 70.8081 77.5414 71.2681C78.1738 71.7281 78.6614 71.7225 79.0041 71.2513C79.1034 71.1149 79.2392 70.7587 79.4118 70.1826L80.1321 70.3653C80.1128 71.5648 79.9363 72.3939 79.6026 72.8527C78.9802 73.7083 78.2413 73.8249 77.3857 73.2026C76.3813 72.472 75.665 71.3062 75.2368 69.7054C74.8119 68.1259 74.9332 66.8774 75.6007 65.9599C76.3313 64.9555 77.4158 64.9764 78.8542 66.0227C79.5361 66.5188 80.5247 67.5318 81.8199 69.0617L82.3578 67.1493L82.8177 67.4554C82.8019 67.6335 82.6147 68.3601 82.2561 69.635C84.4294 71.8606 85.7414 73.7062 86.1922 75.1717C86.6554 76.6463 86.4721 77.954 85.6422 79.0948C85.2634 79.6156 84.7938 79.9092 84.2336 79.9756C83.6733 80.0421 83.1265 79.8814 82.5933 79.4936C81.527 78.7179 80.8851 77.502 80.6676 75.8459C80.4626 74.1988 80.6888 72.363 81.3463 70.3384ZM81.8231 70.8559C81.5343 72.2955 81.4801 73.6212 81.6604 74.8331C81.8406 76.045 82.2159 76.8584 82.7863 77.2733C83.0839 77.4898 83.3888 77.5789 83.7011 77.5406C84.0134 77.5023 84.2642 77.3529 84.4537 77.0925C84.8325 76.5717 84.841 75.7911 84.4792 74.7505C84.1175 73.7099 83.2321 72.4117 81.8231 70.8559Z" fill="white"/>
<path d="M72.1413 73.7671L71.689 74.6222C71.6167 74.5967 71.489 74.516 71.3061 74.38C70.9061 74.0571 70.6041 73.9637 70.4001 74.0999C69.9708 74.4234 69.6861 74.9084 69.5462 75.5549C69.3936 76.2099 69.4194 76.7734 69.6239 77.2453C69.9809 76.8964 70.2869 76.6368 70.542 76.4665C70.797 76.2962 71.0414 76.1514 71.2753 76.0322C71.5048 75.9343 71.7578 75.8575 72.0342 75.8021C72.6125 75.6741 73.14 75.9672 73.6168 76.6813C74.1021 77.4082 74.2282 78.4118 73.9951 79.692C73.7621 80.9722 73.1418 81.9486 72.1344 82.6212C71.5988 82.9788 71.063 83.0599 70.527 82.8647C69.9911 82.6694 69.4038 82.0935 68.7653 81.1371C68.5439 80.8055 68.2522 80.272 67.8903 79.5365C68.2274 81.2842 68.7961 82.785 69.5964 84.039L68.27 84.6204C67.674 83.7277 67.0521 82.1887 66.4043 80.0032C65.7437 77.8262 65.4068 76.3827 65.3935 75.6725L66.7519 75.0975C67.0334 76.3476 67.5828 77.5848 68.4001 78.809C69.2175 80.0332 69.8431 80.777 70.277 81.0404C70.7493 81.3336 71.2086 81.3311 71.6549 81.0331C72.0885 80.7437 72.4114 80.3161 72.6237 79.7503C72.8232 79.1931 72.7974 78.7125 72.5462 78.3087C72.295 77.9049 71.9504 77.6925 71.5124 77.6715C71.0701 77.6718 70.6491 77.7592 70.2495 77.9339C69.1526 78.3896 68.5062 78.4708 68.3104 78.1775C68.1486 77.9352 68.1292 77.3951 68.2519 76.5573C68.3747 75.7194 68.5995 74.8687 68.9264 74.0052C69.2491 73.163 69.5762 72.6312 69.9078 72.4098C70.2266 72.197 70.571 72.1882 70.9412 72.3836C71.29 72.5748 71.5496 72.7979 71.7198 73.0529C71.8901 73.308 72.0306 73.546 72.1413 73.7671Z" fill="white"/>
<path d="M55.6635 88.0738C55.3954 86.9871 56.1707 85.8404 57.9893 84.6337C57.3725 84.4384 56.9046 84.238 56.5854 84.0324C56.255 83.8454 56.0494 83.5882 55.9686 83.2607C55.763 82.427 56.0501 81.5744 56.8301 80.7029C57.6138 79.8463 58.5415 79.2858 59.6134 79.0214C60.1344 78.8928 60.6757 78.8462 61.2371 78.8814C61.7986 78.9166 62.2054 79.0295 62.4577 79.2199L61.802 80.2108C61.5792 80.0763 61.3025 79.9787 60.9717 79.9182C60.626 79.8613 60.349 79.8586 60.1406 79.91C59.3962 80.0936 58.7647 80.4468 58.2462 80.9695C57.7164 81.5108 57.5195 82.0569 57.6553 82.6077C57.7288 82.9055 57.901 83.1235 58.1721 83.262C58.4468 83.4153 58.7273 83.4962 59.0136 83.5045C59.2888 83.5314 59.5527 83.5768 59.8053 83.6409C60.0617 83.7197 60.2101 83.8411 60.2505 84.0048C60.2909 84.1686 60.1564 84.3597 59.847 84.5781C59.5265 84.8152 59.1613 85.0316 58.7516 85.2274C58.3456 85.4381 57.999 85.6973 57.7116 86.0051C57.4131 86.3314 57.2987 86.636 57.3685 86.9189C57.4383 87.2017 57.5901 87.4012 57.8241 87.5172C58.058 87.6332 58.3238 87.6545 58.6216 87.581C58.9044 87.5113 59.3125 87.2448 59.8457 86.7816C60.379 86.3184 60.8976 85.764 61.4017 85.1185L61.8686 85.6667C61.4869 86.4241 60.9007 87.1531 60.1101 87.8535C59.3083 88.5724 58.632 88.9998 58.0812 89.1357C57.5155 89.2753 57.0005 89.2365 56.5363 89.0193C56.0609 88.8207 55.77 88.5056 55.6635 88.0738Z" fill="white"/>
<path d="M42.865 82.2684L42.3778 81.8264C42.6374 81.3902 43.0778 80.9953 43.699 80.6417C44.3049 80.2865 44.8444 80.1327 45.3173 80.1803C46.2174 80.2708 46.6199 80.7891 46.5248 81.735C46.4803 82.1774 46.3129 82.6922 46.0227 83.2795L46.9569 82.495C47.8651 81.7388 48.639 81.2464 49.2784 81.0179C49.9025 80.7879 50.5045 80.7021 51.0842 80.7604C51.664 80.8187 52.0903 81.0234 52.3632 81.3744C52.6193 81.7392 52.7182 82.2115 52.6599 82.7913C52.5525 83.8592 52.0347 84.8705 51.1065 85.825C50.1767 86.7948 49.0381 87.5433 47.6906 88.0704C46.3431 88.5976 45.0278 88.8043 43.7447 88.6907L43.7749 87.9309L44.7568 87.8216C46.1758 87.6561 47.4653 87.1694 48.6253 86.3614C49.7701 85.5519 50.3885 84.6895 50.4806 83.7741C50.5711 82.874 50.2502 82.3871 49.5179 82.3134C48.8314 82.2444 47.9363 82.6398 46.8327 83.4996C45.7291 84.3595 44.7765 85.4041 43.9748 86.6333L43.0712 85.9646C44.2089 84.1527 44.8038 82.9873 44.856 82.4686C44.8775 82.255 44.8272 82.0651 44.7053 81.8987C44.5665 81.746 44.4285 81.6628 44.2912 81.649C44.1386 81.6336 44.0387 81.6313 43.9914 81.6419C43.9441 81.6526 43.8968 81.6633 43.8495 81.6739C43.8006 81.6998 43.7434 81.7326 43.6778 81.7722C43.5969 81.8103 43.5313 81.8499 43.4809 81.8911C43.4153 81.9307 43.3168 81.9902 43.1856 82.0694C43.0543 82.1487 42.9475 82.215 42.865 82.2684Z" fill="white"/>
<path d="M27.1748 75.0474L27.0095 74.4012C28.5802 73.5393 29.8464 73.4094 30.8082 74.0114C31.1981 74.2555 31.4384 74.5507 31.5292 74.8969C31.5988 75.2481 31.5238 75.5991 31.3041 75.95C31.0763 76.3139 30.4754 76.797 29.5014 77.3993C28.5274 78.0016 27.885 78.5221 27.5743 78.9607C27.4311 79.1605 27.3903 79.3701 27.4519 79.5896C27.5005 79.8009 27.6418 79.9798 27.8758 80.1263C28.1097 80.2727 28.3867 80.3647 28.7069 80.4023C29.0059 80.4448 29.3497 80.4158 29.7382 80.3153C30.1138 80.2067 30.4722 80.0964 30.8136 79.9845C31.142 79.8645 31.5575 79.6632 32.0599 79.3808C32.5493 79.0902 32.9615 78.8508 33.2965 78.6625C33.903 78.3005 34.7932 77.7452 35.9673 76.9968L36.8807 78.1385C36.8563 78.1774 36.1822 78.7775 34.8583 79.9387C33.5345 81.0998 32.7871 81.8169 32.6162 82.0898C32.4454 82.3627 32.3883 82.5984 32.4451 82.7967C32.4937 83.008 32.6155 83.1747 32.8104 83.2968C33.3953 83.6629 34.6632 83.4436 36.6142 82.6388C38.5521 81.8259 39.9855 80.9956 40.9141 80.1478L41.7935 81.2139C41.2973 81.862 40.2189 82.9055 38.5585 84.3444C36.8898 85.7962 35.6636 86.7291 34.8799 87.143L34.1979 86.2819C35.1622 85.6373 35.9176 85.0519 36.4641 84.5257C37.0024 84.0125 37.5498 83.4416 38.1061 82.813C35.9876 83.7119 34.3522 84.2438 33.1997 84.4088C32.0391 84.5867 31.1533 84.4845 30.5425 84.1021C29.8797 83.6872 29.7557 83.1483 30.1706 82.4854C30.3334 82.2255 30.7717 81.7854 31.4857 81.165C32.1866 80.5365 32.7404 80.042 33.147 79.6815C29.5473 81.444 27.0391 81.8818 25.6224 80.995C25.2715 80.7753 25.0612 80.4899 24.9916 80.1388C24.9138 79.8007 25.0092 79.4172 25.2777 78.9883C25.538 78.5724 26.2202 78.0316 27.3243 77.366C28.4154 76.6923 29.0423 76.2255 29.205 75.9655C29.3596 75.7186 29.4215 75.5041 29.3908 75.3221C29.36 75.14 29.2667 75.0001 29.1107 74.9025C28.7728 74.691 28.1275 74.7393 27.1748 75.0474Z" fill="white"/>
<path d="M21.235 70.5165C20.7165 69.8507 20.7495 69.3069 21.3338 68.8851C22.1046 68.3287 23.1699 68.1932 24.5296 68.4788C25.8678 68.7608 26.8376 69.3184 27.4389 70.1514C28.0043 70.9346 27.7586 71.7077 26.7018 72.4705C25.8688 73.0718 24.6889 73.6115 23.1619 74.0897C21.6135 74.5645 20.4857 74.8491 19.7785 74.9435L19.4525 73.9024C20.6307 73.5435 22.0247 73.0384 23.6346 72.3869C22.4567 71.7243 21.6568 71.1009 21.235 70.5165ZM23.3712 69.4284C23.1558 69.4704 22.9672 69.5498 22.8056 69.6665C22.4968 69.9461 22.5399 70.3594 22.9348 70.9064C23.1232 71.1675 23.5851 71.5716 24.3205 72.1188C24.7652 71.949 25.1368 71.7564 25.4352 71.541C25.7211 71.3346 25.9018 71.1002 25.9771 70.8378C26.0435 70.563 25.9914 70.3074 25.8209 70.0712C25.6414 69.8226 25.3062 69.6201 24.8152 69.4639C24.3118 69.3167 23.8305 69.3049 23.3712 69.4284Z" fill="white"/>
<path d="M18.8143 61.2328L19.0435 60.5517C19.9628 60.5897 20.8054 60.8959 21.5711 61.4704C22.3369 62.045 22.8584 62.6896 23.1358 63.4043C23.4077 64.1047 23.4136 64.7768 23.1535 65.4205C22.8879 66.0499 22.3692 66.5144 21.5973 66.814C20.8254 67.1136 19.8588 67.1022 18.6975 66.7799C17.5362 66.4576 16.4572 65.8812 15.4606 65.0509C14.4584 64.2063 13.7576 63.2694 13.3582 62.2402C13.3027 62.0972 13.2338 61.8773 13.1514 61.5803L14.0126 61.32C14.6943 62.8647 15.6808 63.9868 16.9721 64.6863C18.2578 65.3716 19.401 65.52 20.4016 65.1317C20.8161 64.9708 21.1021 64.7117 21.2595 64.3546C21.417 63.9974 21.4152 63.6116 21.2544 63.197C20.9992 62.5395 20.1858 61.8847 18.8143 61.2328Z" fill="white"/>
<path d="M19.026 58.1017L18.5335 57.2691C18.593 57.2208 18.7286 57.1542 18.9401 57.0693C19.4245 56.8971 19.662 56.6885 19.6525 56.4433C19.6011 55.9082 19.3365 55.4121 18.8585 54.9548C18.3799 54.4823 17.886 54.2098 17.3768 54.1374C17.4877 54.6241 17.549 55.0207 17.5609 55.3272C17.5727 55.6336 17.5683 55.9177 17.5477 56.1793C17.5112 56.4262 17.4444 56.682 17.3472 56.9466C17.154 57.5065 16.6284 57.803 15.7703 57.8361C14.897 57.8699 13.9755 57.4528 13.006 56.5849C12.0365 55.717 11.5283 54.6778 11.4816 53.4674C11.4567 52.8238 11.6676 52.3247 12.1143 51.9698C12.5609 51.615 13.3588 51.4154 14.5079 51.371C14.9063 51.3556 15.5136 51.3859 16.3298 51.4618C14.6637 50.8356 13.087 50.5359 11.5996 50.5626L11.7974 49.1279C12.8699 49.0865 14.5071 49.3609 16.7088 49.9511C18.91 50.5259 20.3167 50.9933 20.929 51.3533L20.7092 52.8118C19.4963 52.3983 18.1544 52.22 16.6835 52.2768C15.2126 52.3336 14.2515 52.4781 13.8001 52.7103C13.3033 52.9597 13.0653 53.3525 13.086 53.8888C13.1061 54.4097 13.3019 54.9085 13.6732 55.3852C14.044 55.8466 14.4671 56.0758 14.9427 56.0728C15.4183 56.0697 15.7795 55.887 16.0263 55.5245C16.2573 55.1473 16.4028 54.7428 16.4628 54.3108C16.6477 53.1374 16.9163 52.544 17.2687 52.5304C17.5599 52.5191 18.0305 52.7848 18.6805 53.3275C19.3306 53.8701 19.9383 54.5065 20.5036 55.2366C21.0529 55.9519 21.3353 56.5088 21.3506 56.9071C21.3654 57.2902 21.1928 57.5884 20.8328 57.8018C20.4875 57.9992 20.1616 58.1039 19.8552 58.1157C19.5487 58.1276 19.2723 58.1229 19.026 58.1017Z" fill="white"/>
<path d="M21.9 34.0568L22.5665 33.7883C23.1353 34.5116 23.4502 35.3509 23.5113 36.3063C23.5724 37.2617 23.4216 38.077 23.0587 38.7524C22.7031 39.4142 22.1962 39.8556 21.538 40.0763C20.8871 40.2836 20.1969 40.1913 19.4675 39.7994C18.7381 39.4075 18.1185 38.6656 17.6086 37.5735C17.0987 36.4815 16.8354 35.287 16.8186 33.9899C16.8091 32.6793 17.0655 31.5377 17.5881 30.5652C17.6606 30.4301 17.783 30.2348 17.9551 29.9792L18.7127 30.4645C17.9819 31.9866 17.7704 33.4656 18.0781 34.9016C18.393 36.324 19.0233 37.2892 19.9688 37.7972C20.3605 38.0077 20.7432 38.0567 21.117 37.9442C21.4907 37.8316 21.7828 37.5795 21.9933 37.1878C22.3271 36.5665 22.296 35.5228 21.9 34.0568Z" fill="white"/>
<path d="M25.5044 24.0974C26.2539 24.2763 26.9125 24.6456 27.4804 25.2053C28.365 26.0771 28.8554 27.1632 28.9516 28.4636C29.0368 29.7533 28.6705 30.8131 27.8525 31.6431C27.2282 32.2765 26.5583 32.5958 25.8427 32.601C25.127 32.5845 24.4469 32.2588 23.8026 31.6237C22.7651 30.6012 22.2351 29.2823 22.2125 27.6669C22.179 26.0407 22.6574 24.7253 23.6476 23.7206C23.8306 23.5349 23.9652 23.4093 24.0515 23.3436L24.6405 23.8272C23.7794 24.7009 23.3148 25.6747 23.2467 26.7486C23.1786 27.8225 23.5377 28.7469 24.324 29.5219C24.7936 29.9847 25.2889 30.2468 25.8098 30.308C26.3197 30.3585 26.79 30.1654 27.2205 29.7285C27.6618 29.2808 27.815 28.7321 27.6802 28.0825C27.5454 27.433 27.2159 26.8499 26.6917 26.3332C26.1565 25.8058 25.5683 25.4306 24.927 25.2076L25.5044 24.0974Z" fill="white"/>
<path d="M49.1627 18.3842L49.7115 18.6757C49.5787 19.3576 49.2764 19.9711 48.8045 20.5159C48.3477 21.0579 47.8935 21.3728 47.442 21.4608C47.0055 21.5457 46.63 21.4626 46.3155 21.2114C45.9981 20.9452 45.7911 20.5637 45.6944 20.0671C45.5977 19.5704 45.5559 18.9146 45.5691 18.0997C45.0786 19.3512 44.4885 20.3721 43.7988 21.1625C43.1091 21.9529 42.4859 22.4023 41.929 22.5107C41.0862 22.6748 40.5607 22.2226 40.3527 21.154C40.3321 21.0486 40.3115 20.3809 40.2907 19.1509C39.7972 20.3873 39.2435 21.3543 38.6295 22.0518C38.0276 22.7314 37.4407 23.1268 36.8688 23.2382C36.0259 23.4023 35.5005 22.95 35.2924 21.8814L35.9921 20.9017C36.0448 21.1726 36.1881 21.3868 36.4218 21.5444C36.6706 21.699 36.9305 21.75 37.2014 21.6972C37.6981 21.6005 38.2858 21.0487 38.9645 20.0417C39.6583 19.0319 40.2256 17.7733 40.6663 16.2659C40.7582 15.9356 40.8624 15.5482 40.9789 15.1037C41.1076 14.6413 41.1995 14.311 41.2546 14.1128C41.3098 13.9146 41.377 13.6984 41.4564 13.4643C41.5876 13.0951 41.7585 12.89 41.9693 12.8489C42.18 12.8079 42.3692 12.857 42.5369 12.9962C42.7046 13.1353 42.8104 13.3178 42.8543 13.5436C42.8954 13.7543 42.876 14.0158 42.7962 14.3282C42.7315 14.6376 42.6045 15.0684 42.4152 15.6208C42.223 16.1581 42.0749 16.6009 41.9709 16.9492C41.7788 18.0488 41.7194 18.7868 41.7927 19.163C41.866 19.5393 42.0195 19.8062 42.2532 19.9638C42.502 20.1184 42.7619 20.1694 43.0328 20.1166C43.5445 20.017 44.0779 19.507 44.6329 18.5866C45.2 17.6483 45.715 16.3217 46.1778 14.607C46.23 14.3938 46.2929 14.155 46.3664 13.8908C46.437 13.6115 46.4907 13.4058 46.5274 13.2736C46.5613 13.1265 46.5997 12.9628 46.6427 12.7825C46.7008 12.5994 46.7451 12.4658 46.7756 12.3818C46.8182 12.2797 46.8623 12.1852 46.9078 12.0983C47.0169 11.9364 47.1542 11.8394 47.3198 11.8072C47.5004 11.772 47.6745 11.824 47.8422 11.9632C48.0099 12.1024 48.1157 12.2849 48.1597 12.5106C48.2007 12.7213 48.0061 13.7277 47.576 15.5298C47.1579 17.3139 46.9825 18.3791 47.0499 18.7253C47.1173 19.0714 47.2349 19.3141 47.4026 19.4533C47.5853 19.5895 47.7444 19.6445 47.8799 19.6181C48.0304 19.5888 48.1418 19.5593 48.2141 19.5296C48.2864 19.4999 48.3558 19.4551 48.4223 19.3953C48.4888 19.3355 48.5416 19.2862 48.5809 19.2473C48.6353 19.2055 48.6927 19.1396 48.7533 19.0497L48.8806 18.8609C48.917 18.807 48.964 18.7275 49.0217 18.6225C49.0914 18.4996 49.1385 18.4202 49.1627 18.3842Z" fill="white"/>
<path d="M62.7211 14.5695L63.5376 14.9947C63.4959 15.0947 63.1635 15.4918 62.5404 16.1858C61.936 16.8688 61.2365 17.7965 60.4421 18.9689C59.6516 20.1264 59.0204 21.341 58.5488 22.6127L57.1525 22.1325C57.3638 21.3161 57.8964 20.3294 58.7502 19.1724C58.6204 19.123 58.3477 19.0445 57.9321 18.9369C57.5313 18.8332 56.7641 18.7376 55.6305 18.6501C54.4355 20.1464 53.6824 21.4958 53.3712 22.6982L51.9312 22.1117C52.204 21.0577 52.9335 19.8607 54.1198 18.5205C53.332 18.4433 52.5289 18.4255 51.7103 18.4671L51.7124 17.5411C51.724 17.4965 52.15 17.4722 52.9905 17.468C53.8459 17.4676 54.4742 17.4877 54.8755 17.5282C56.77 15.1042 57.9881 13.7326 58.53 13.4136L59.3895 14.0399C59.2769 14.1691 59.0197 14.4589 58.6181 14.9093C57.6158 16.0279 56.9019 16.9201 56.4761 17.586C57.8021 17.7867 58.5913 17.9197 58.8437 17.985C59.1109 18.0541 59.3316 18.1192 59.5059 18.1801C61.1635 16.0591 62.2353 14.8556 62.7211 14.5695Z" fill="white"/>
<path d="M71.7095 21.7967C71.6777 22.5665 71.4418 23.2838 71.0015 23.9486C70.3156 24.984 69.3438 25.6738 68.0861 26.0178C66.8368 26.349 65.7263 26.1929 64.7548 25.5494C64.0133 25.0583 63.5714 24.4621 63.4289 23.7608C63.3077 23.0552 63.4969 22.3253 63.9965 21.5711C64.8008 20.3567 65.9935 19.5833 67.5745 19.2511C69.164 18.9061 70.5468 19.1231 71.7229 19.9021C71.9402 20.046 72.0894 20.154 72.1704 20.226L71.8088 20.8969C70.7861 20.2196 69.7413 19.9505 68.6743 20.0898C67.6072 20.2291 66.7689 20.759 66.1593 21.6794C65.7952 22.2291 65.6331 22.7654 65.673 23.2884C65.7213 23.7986 66.0011 24.223 66.5124 24.5617C67.0366 24.9088 67.6044 24.9539 68.2161 24.6969C68.8277 24.4399 69.3367 24.0046 69.7431 23.391C70.158 22.7646 70.4133 22.1153 70.5091 21.4431L71.7095 21.7967Z" fill="white"/>
<path d="M77.4117 33.8031L77.4001 34.4244C76.7318 34.6145 76.048 34.6224 75.3485 34.448C74.6585 34.2858 74.1722 34.0232 73.8895 33.6603C73.6163 33.3095 73.5206 32.937 73.6023 32.5429C73.6962 32.1394 73.9427 31.7822 74.3419 31.4713C74.7411 31.1604 75.307 30.8265 76.0397 30.4696C74.7017 30.5983 73.5243 30.5338 72.5074 30.2763C71.4906 30.0188 70.8078 29.6663 70.4592 29.2187C69.9316 28.5413 70.073 27.8869 70.8835 27.2556C71.694 26.6244 72.9994 26.0546 74.7998 25.5464C76.6217 25.0408 77.7236 24.8336 78.1056 24.9248L78.4029 26.0926C77.2182 26.2185 76.1399 26.4559 75.1678 26.8049C74.1957 27.1538 73.5766 27.432 73.3105 27.6393C73.0565 27.8371 72.912 28.0759 72.8773 28.3557C72.8519 28.6475 72.924 28.9023 73.0936 29.1201C73.4705 29.6039 74.3785 29.8588 75.8174 29.8847C77.2779 29.9133 79.1833 29.6148 81.5337 28.9892L81.8371 30.2397C81.7215 30.2908 80.8032 30.5591 79.0821 31.0444C77.3705 31.5418 76.3816 31.8942 76.1155 32.1015C75.8615 32.2993 75.7103 32.5045 75.662 32.717C75.6232 32.9416 75.6462 33.1084 75.731 33.2173C75.8252 33.3382 75.9019 33.4242 75.9611 33.4753C76.0203 33.5264 76.0916 33.568 76.175 33.6002C76.2584 33.6324 76.3264 33.6573 76.3788 33.6747C76.4407 33.7043 76.5254 33.7257 76.633 33.7391L76.8913 33.7712C76.9343 33.7766 77.0157 33.7812 77.1354 33.7852C77.2766 33.7918 77.3687 33.7978 77.4117 33.8031ZM83.5054 27.366L83.6391 28.1365C83.0756 28.1866 82.498 28.1312 81.9061 27.9702C81.3237 27.8213 80.8865 27.5594 80.5944 27.1844C80.3023 26.8094 80.1352 26.3079 80.0931 25.6799C80.0631 25.0425 80.0943 24.4837 80.1868 24.0035L81.1289 24.2026C81.0019 25.3121 81.0939 26.0665 81.4048 26.4657C81.8854 27.0827 82.5856 27.3827 83.5054 27.366Z" fill="white"/>
</svg>
