<svg width="20" height="20" viewBox="0 0 20 20" fill="none" xmlns="http://www.w3.org/2000/svg">
<path fill-rule="evenodd" clip-rule="evenodd" d="M7.5547 7.83205C7.8329 7.64658 8 7.33435 8 7V3C8 1.34315 6.65685 0 5 0H1C0.447715 0 0 0.447715 0 1C0 10.9411 9.05887 20 19 20C19.5523 20 20 19.5523 20 19V15C20 13.3431 18.6569 12 17 12H13C12.6656 12 12.3534 12.1671 12.1679 12.4453L10.2626 15.3033C8.18739 13.9615 6.36925 12.1892 4.97074 10.149L4.69668 9.7374L7.5547 7.83205ZM13.5352 14H17C17.5523 14 18 14.4477 18 15V17.9653C16.0628 17.8313 14.1721 17.3132 12.4087 16.4916L12.0041 16.2966L13.5352 14ZM2.03467 2H5C5.55228 2 6 2.44772 6 3V6.46482L3.70338 7.9959C2.76882 6.11845 2.17903 4.08626 2.03467 2Z" fill="#202F44"/>
</svg>
