<svg width="293" height="60" viewBox="0 0 293 60" fill="none" xmlns="http://www.w3.org/2000/svg">
<path d="M118.964 46.756C119.316 46.3747 119.697 46.0007 120.108 45.634C120.519 45.2673 120.885 45.084 121.208 45.084C121.531 45.084 121.78 45.1867 121.956 45.392C122.147 45.5973 122.242 45.8833 122.242 46.25C122.242 46.602 122.073 47.306 121.736 48.362C121.399 49.4033 120.929 50.54 120.328 51.772L119.206 51.706C120.13 49.682 120.592 48.252 120.592 47.416C120.592 47.02 120.453 46.822 120.174 46.822C120.042 46.822 119.881 46.9393 119.69 47.174C119.499 47.4087 119.301 47.6727 119.096 47.966C118.905 48.2447 118.627 48.5013 118.26 48.736C117.893 48.9707 117.497 49.088 117.072 49.088C116.031 49.088 115.51 48.6187 115.51 47.68C115.51 47.1813 115.598 46.5287 115.774 45.722C115.231 46.2793 114.777 46.7267 114.41 47.064C114.043 47.4013 113.537 47.746 112.892 48.098C112.261 48.4353 111.623 48.604 110.978 48.604C110.347 48.604 109.819 48.384 109.394 47.944C108.969 47.4893 108.719 46.844 108.646 46.008C107.957 46.7413 107.113 47.4307 106.116 48.076C105.119 48.7067 104.239 49.022 103.476 49.022C102.728 49.022 102.134 48.7653 101.694 48.252C101.254 47.7387 101.034 47.0787 101.034 46.272C101.034 44.4387 101.929 42.2607 103.718 39.738C105.507 37.2153 107.319 35.4187 109.152 34.348L109.746 35.184C108.074 36.4307 106.541 38.0733 105.148 40.112C103.755 42.1507 103.058 43.94 103.058 45.48C103.058 46.052 103.19 46.4993 103.454 46.822C103.733 47.13 104.114 47.284 104.598 47.284C105.097 47.284 105.786 46.998 106.666 46.426C107.546 45.854 108.206 45.3187 108.646 44.82C108.719 43.3973 109.057 41.9527 109.658 40.486C110.274 39.0193 111 37.824 111.836 36.9C112.687 35.9613 113.479 35.492 114.212 35.492C114.828 35.492 115.136 35.8587 115.136 36.592C115.136 37.3253 114.63 38.5133 113.618 40.156C112.606 41.7987 111.565 43.17 110.494 44.27C110.67 45.4433 110.868 46.14 111.088 46.36C111.367 46.6387 111.741 46.778 112.21 46.778C113.266 46.778 114.278 46.1547 115.246 44.908C116.214 43.6613 117.175 41.762 118.128 39.21C118.509 38.1687 118.803 37.4793 119.008 37.142C119.228 36.8047 119.448 36.636 119.668 36.636C119.888 36.636 120.064 36.6947 120.196 36.812C120.343 36.9293 120.416 37.098 120.416 37.318C120.416 38.154 119.969 39.342 119.074 40.882C118.311 42.7007 117.82 43.962 117.6 44.666C117.395 45.37 117.292 45.898 117.292 46.25C117.292 46.602 117.365 46.866 117.512 47.042C117.659 47.218 117.849 47.306 118.084 47.306C118.319 47.306 118.612 47.1227 118.964 46.756ZM113.09 37.56C112.606 37.56 112.071 38.132 111.484 39.276C110.897 40.4053 110.523 41.608 110.362 42.884C111.271 41.7987 111.997 40.8013 112.54 39.892C113.097 38.968 113.376 38.3007 113.376 37.89C113.376 37.67 113.281 37.56 113.09 37.56ZM132.28 46.426L132.742 46.8C132.492 47.416 132.096 47.9367 131.554 48.362C131.026 48.7873 130.542 49 130.102 49C129.676 49 129.339 48.8533 129.09 48.56C128.84 48.252 128.716 47.856 128.716 47.372C128.716 46.888 128.796 46.2647 128.958 45.502C128.268 46.5873 127.528 47.438 126.736 48.054C125.944 48.67 125.276 48.978 124.734 48.978C123.912 48.978 123.502 48.4867 123.502 47.504C123.502 46.5213 123.839 45.2013 124.514 43.544C125.203 41.872 125.694 40.9187 125.988 40.684L127.044 41.146C126.442 42.114 125.988 43.0673 125.68 44.006C125.372 44.9447 125.218 45.5753 125.218 45.898C125.218 46.206 125.313 46.4553 125.504 46.646C125.709 46.8367 125.944 46.932 126.208 46.932C126.794 46.932 127.52 46.3967 128.386 45.326C129.266 44.2407 130.16 42.6273 131.07 40.486L132.192 40.992C132.162 41.1093 131.825 41.96 131.18 43.544C130.549 45.128 130.234 46.0813 130.234 46.404C130.234 46.712 130.3 46.9467 130.432 47.108C130.578 47.2693 130.718 47.35 130.85 47.35C130.996 47.35 131.106 47.3427 131.18 47.328C131.253 47.3133 131.326 47.284 131.4 47.24C131.473 47.196 131.532 47.1593 131.576 47.13C131.634 47.1007 131.7 47.0493 131.774 46.976L131.928 46.8C131.972 46.7707 132.03 46.712 132.104 46.624C132.192 46.5213 132.25 46.4553 132.28 46.426ZM142.048 46.558L142.598 47.042C141.747 48.4353 140.845 49.132 139.892 49.132C139.349 49.132 138.792 48.78 138.22 48.076C137.662 47.372 137.325 46.69 137.208 46.03C137.12 46.1913 136.87 46.6167 136.46 47.306C136.049 47.9953 135.756 48.56 135.58 49L134.26 48.538C134.568 46.734 134.942 45.0327 135.382 43.434C135.836 41.8353 136.262 40.7133 136.658 40.068L137.56 40.354C137.296 41.0287 136.856 42.8253 136.24 45.744C137.046 44.0867 137.86 42.8767 138.682 42.114C139.503 41.3367 140.405 40.8233 141.388 40.574V42.026C140.332 42.07 139.312 42.7813 138.33 44.16C138.388 45.1133 138.667 45.9053 139.166 46.536C139.679 47.1667 140.163 47.482 140.618 47.482C140.838 47.482 141.314 47.174 142.048 46.558ZM153.556 46.778L154.062 47.152C153.856 47.592 153.475 48.01 152.918 48.406C152.375 48.802 151.876 49 151.422 49C150.556 49 150.124 48.5453 150.124 47.636C150.124 47.2107 150.234 46.7047 150.454 46.118L149.64 46.954C148.848 47.7607 148.158 48.3033 147.572 48.582C147 48.8607 146.435 49 145.878 49C145.32 49 144.895 48.846 144.602 48.538C144.323 48.2153 144.184 47.7753 144.184 47.218C144.184 46.1913 144.58 45.1793 145.372 44.182C146.164 43.17 147.176 42.3487 148.408 41.718C149.64 41.0873 150.872 40.7647 152.104 40.75L152.148 41.476L151.224 41.674C149.889 41.9673 148.708 42.554 147.682 43.434C146.67 44.314 146.164 45.194 146.164 46.074C146.164 46.9393 146.516 47.372 147.22 47.372C147.88 47.372 148.694 46.91 149.662 45.986C150.63 45.062 151.436 43.9767 152.082 42.73L153.006 43.28C152.096 45.1133 151.642 46.2793 151.642 46.778C151.642 46.9833 151.708 47.1593 151.84 47.306C151.986 47.438 152.126 47.504 152.258 47.504C152.404 47.504 152.5 47.4967 152.544 47.482C152.588 47.4673 152.632 47.4527 152.676 47.438C152.72 47.4087 152.771 47.372 152.83 47.328C152.903 47.284 152.962 47.24 153.006 47.196C153.064 47.152 153.152 47.086 153.27 46.998C153.387 46.91 153.482 46.8367 153.556 46.778ZM163.747 40.442L164.605 40.64C164.591 40.7427 164.378 41.19 163.967 41.982C163.571 42.7593 163.146 43.786 162.691 45.062C162.237 46.3233 161.943 47.5993 161.811 48.89L160.403 48.78C160.403 47.9733 160.66 46.932 161.173 45.656C161.041 45.6413 160.77 45.634 160.359 45.634C159.963 45.634 159.23 45.7293 158.159 45.92C157.411 47.592 157.037 49.022 157.037 50.21L155.563 50.012C155.563 48.9707 155.952 47.6873 156.729 46.162C155.981 46.2793 155.233 46.4553 154.485 46.69L154.265 45.832C154.265 45.788 154.654 45.6633 155.431 45.458C156.223 45.2527 156.81 45.1207 157.191 45.062C158.365 42.3633 159.164 40.8013 159.589 40.376L160.535 40.75C160.462 40.8967 160.293 41.2267 160.029 41.74C159.369 43.016 158.922 44.0133 158.687 44.732C159.963 44.6 160.726 44.534 160.975 44.534C161.239 44.534 161.459 44.5413 161.635 44.556C162.662 42.1947 163.366 40.8233 163.747 40.442ZM171.872 42.466C172.253 43.0967 172.444 43.7933 172.444 44.556C172.444 45.744 172.033 46.8073 171.212 47.746C170.391 48.67 169.423 49.132 168.308 49.132C167.457 49.132 166.79 48.89 166.306 48.406C165.837 47.9073 165.602 47.2253 165.602 46.36C165.602 44.9667 166.145 43.72 167.23 42.62C168.315 41.5053 169.533 40.948 170.882 40.948C171.131 40.948 171.307 40.9553 171.41 40.97L171.476 41.696C170.303 41.696 169.327 42.0333 168.55 42.708C167.773 43.3827 167.384 44.248 167.384 45.304C167.384 45.9347 167.538 46.448 167.846 46.844C168.154 47.2253 168.601 47.416 169.188 47.416C169.789 47.416 170.266 47.152 170.618 46.624C170.97 46.096 171.146 45.48 171.146 44.776C171.146 44.0573 171.007 43.4047 170.728 42.818L171.872 42.466ZM175.955 42.092C175.603 43.764 175.42 44.9813 175.405 45.744C175.405 46.7853 175.706 47.306 176.307 47.306C176.952 47.306 177.532 47.0273 178.045 46.47C178.558 45.9127 178.815 45.26 178.815 44.512C178.815 43.764 178.536 43.39 177.979 43.39C177.818 43.39 177.466 43.4853 176.923 43.676L176.659 43.016C177.598 42.356 178.338 42.026 178.881 42.026C179.893 42.026 180.399 42.532 180.399 43.544C180.399 44.732 179.9 45.942 178.903 47.174C177.92 48.3913 176.886 49 175.801 49C174.613 49 174.019 48.1493 174.019 46.448C174.019 45.6413 174.246 44.3067 174.701 42.444L172.919 43.104L172.897 42.576C173.044 42.488 173.711 42.224 174.899 41.784C175.398 38.8507 176.087 36.7973 176.967 35.624C177.847 34.436 178.962 33.842 180.311 33.842C180.927 33.842 181.418 34.04 181.785 34.436C182.152 34.832 182.335 35.3453 182.335 35.976C182.335 37.2373 181.756 38.418 180.597 39.518C179.438 40.6033 177.891 41.4613 175.955 42.092ZM176.087 41.432C177.363 40.8453 178.419 40.1413 179.255 39.32C180.091 38.4987 180.509 37.7507 180.509 37.076C180.509 36.724 180.406 36.438 180.201 36.218C179.996 35.998 179.739 35.888 179.431 35.888C178.815 35.888 178.206 36.3207 177.605 37.186C177.004 38.0513 176.498 39.4667 176.087 41.432ZM192.464 46.778L192.97 47.152C192.765 47.592 192.383 48.01 191.826 48.406C191.283 48.802 190.785 49 190.33 49C189.465 49 189.032 48.5453 189.032 47.636C189.032 47.2107 189.142 46.7047 189.362 46.118L188.548 46.954C187.756 47.7607 187.067 48.3033 186.48 48.582C185.908 48.8607 185.343 49 184.786 49C184.229 49 183.803 48.846 183.51 48.538C183.231 48.2153 183.092 47.7753 183.092 47.218C183.092 46.1913 183.488 45.1793 184.28 44.182C185.072 43.17 186.084 42.3487 187.316 41.718C188.548 41.0873 189.78 40.7647 191.012 40.75L191.056 41.476L190.132 41.674C188.797 41.9673 187.617 42.554 186.59 43.434C185.578 44.314 185.072 45.194 185.072 46.074C185.072 46.9393 185.424 47.372 186.128 47.372C186.788 47.372 187.602 46.91 188.57 45.986C189.538 45.062 190.345 43.9767 190.99 42.73L191.914 43.28C191.005 45.1133 190.55 46.2793 190.55 46.778C190.55 46.9833 190.616 47.1593 190.748 47.306C190.895 47.438 191.034 47.504 191.166 47.504C191.313 47.504 191.408 47.4967 191.452 47.482C191.496 47.4673 191.54 47.4527 191.584 47.438C191.628 47.4087 191.679 47.372 191.738 47.328C191.811 47.284 191.87 47.24 191.914 47.196C191.973 47.152 192.061 47.086 192.178 46.998C192.295 46.91 192.391 46.8367 192.464 46.778ZM218.154 45.018L218.132 45.876L216.922 45.92C216.746 46.9467 216.46 47.7753 216.064 48.406C215.683 49.0367 215.037 49.7187 214.128 50.452C213.219 51.1853 212.126 51.794 210.85 52.278C209.589 52.7767 208.533 53.026 207.682 53.026C206.831 53.026 206.186 52.85 205.746 52.498C205.306 52.1607 205.086 51.7133 205.086 51.156C205.086 50.3053 205.585 49.4547 206.582 48.604C207.594 47.7387 208.811 47.02 210.234 46.448C211.671 45.8613 213.094 45.4653 214.502 45.26C214.282 44.8933 213.945 44.5927 213.49 44.358C213.05 44.1233 212.295 43.8593 211.224 43.566C210.637 43.4047 210.344 43.1407 210.344 42.774C210.344 42.554 210.432 42.356 210.608 42.18C210.799 41.9893 211.107 41.7693 211.532 41.52C211.972 41.256 212.383 40.992 212.764 40.728C213.16 40.4493 213.593 40.1193 214.062 39.738C214.546 39.3567 214.949 38.9607 215.272 38.55C215.595 38.1393 215.756 37.78 215.756 37.472C215.756 36.9587 215.499 36.702 214.986 36.702C214.59 36.702 214.047 36.8927 213.358 37.274C212.683 37.6407 212.016 38.1173 211.356 38.704L210.41 41.696C209.75 43.7933 209.017 45.4213 208.21 46.58C207.418 47.7387 206.663 48.318 205.944 48.318C205.181 48.318 204.8 47.8487 204.8 46.91C204.8 45.9713 205.255 44.776 206.164 43.324C207.073 41.8573 208.335 40.354 209.948 38.814C209.948 38.7993 209.985 38.6673 210.058 38.418C210.146 38.154 210.227 37.89 210.3 37.626C210.549 36.834 210.74 36.328 210.872 36.108L211.95 36.284C211.95 36.5627 211.891 36.8927 211.774 37.274C212.595 36.658 213.461 36.1227 214.37 35.668C215.294 35.1987 215.969 34.964 216.394 34.964C216.834 34.964 217.186 35.1033 217.45 35.382C217.714 35.646 217.846 36.042 217.846 36.57C217.846 37.0833 217.597 37.6773 217.098 38.352C216.614 39.0267 216.005 39.6353 215.272 40.178C213.937 41.1753 212.801 41.894 211.862 42.334C213.387 42.5687 214.502 42.884 215.206 43.28C215.91 43.6613 216.423 44.2407 216.746 45.018H218.154ZM206.714 46.272C207.11 46.272 207.704 45.326 208.496 43.434C208.833 42.598 209.083 41.9013 209.244 41.344C209.42 40.7867 209.508 40.4787 209.508 40.42C208.716 41.2853 207.997 42.2753 207.352 43.39C206.707 44.5047 206.384 45.3113 206.384 45.81C206.384 46.118 206.494 46.272 206.714 46.272ZM212.566 50.232C213.285 49.748 213.857 49.2053 214.282 48.604C214.707 48.0027 214.92 47.438 214.92 46.91C214.92 46.6607 214.883 46.4113 214.81 46.162C212.61 46.426 210.799 47.0053 209.376 47.9C207.953 48.78 207.242 49.6233 207.242 50.43C207.242 50.782 207.381 51.0607 207.66 51.266C207.939 51.486 208.32 51.596 208.804 51.596C209.992 51.596 211.246 51.1413 212.566 50.232ZM225.623 46.404L226.129 46.8C225.675 47.4307 225.051 47.9587 224.259 48.384C223.467 48.7947 222.697 49 221.949 49C221.201 49 220.6 48.78 220.145 48.34C219.691 47.9 219.463 47.3207 219.463 46.602C219.463 45.2527 220.175 43.9253 221.597 42.62C223.035 41.3147 224.487 40.662 225.953 40.662C226.921 40.662 227.405 41.0433 227.405 41.806C227.405 42.598 226.892 43.3973 225.865 44.204C224.853 45.0107 223.423 45.744 221.575 46.404C221.707 46.7413 221.913 47.0053 222.191 47.196C222.47 47.3867 222.756 47.482 223.049 47.482C223.68 47.482 224.538 47.1227 225.623 46.404ZM221.465 45.744C222.653 45.3333 223.673 44.82 224.523 44.204C225.374 43.588 225.799 43.0233 225.799 42.51C225.799 42.3193 225.726 42.1507 225.579 42.004C225.433 41.8573 225.264 41.784 225.073 41.784C224.384 41.784 223.636 42.2167 222.829 43.082C222.037 43.9327 221.583 44.82 221.465 45.744ZM230.863 44.952C231.977 43.28 232.945 42.1433 233.767 41.542C234.588 40.926 235.307 40.618 235.923 40.618C236.539 40.618 237.015 40.8087 237.353 41.19C237.69 41.5567 237.859 42.026 237.859 42.598C237.859 44.182 237.287 45.6487 236.143 46.998C235.013 48.3327 233.737 49 232.315 49C231.684 49 231.185 48.89 230.819 48.67L231.347 47.724C232.124 47.8267 232.601 47.878 232.777 47.878C233.569 47.878 234.309 47.416 234.999 46.492C235.688 45.568 236.033 44.622 236.033 43.654C236.033 43.2873 235.923 42.9867 235.703 42.752C235.497 42.5027 235.226 42.378 234.889 42.378C234.082 42.378 233.165 43.0893 232.139 44.512C231.127 45.9347 230.173 47.6947 229.279 49.792C228.399 51.904 227.629 54.148 226.969 56.524L225.649 56.062C225.678 55.974 225.957 55.2113 226.485 53.774C226.998 52.3513 227.504 50.936 228.003 49.528C229.381 45.656 230.071 43.5367 230.071 43.17C230.071 42.2313 229.88 41.3807 229.499 40.618L230.599 40.068C231.053 40.6987 231.281 41.366 231.281 42.07C231.281 42.7593 231.141 43.72 230.863 44.952ZM245.177 42.466C245.558 43.0967 245.749 43.7933 245.749 44.556C245.749 45.744 245.338 46.8073 244.517 47.746C243.695 48.67 242.727 49.132 241.613 49.132C240.762 49.132 240.095 48.89 239.611 48.406C239.141 47.9073 238.907 47.2253 238.907 46.36C238.907 44.9667 239.449 43.72 240.535 42.62C241.62 41.5053 242.837 40.948 244.187 40.948C244.436 40.948 244.612 40.9553 244.715 40.97L244.781 41.696C243.607 41.696 242.632 42.0333 241.855 42.708C241.077 43.3827 240.689 44.248 240.689 45.304C240.689 45.9347 240.843 46.448 241.151 46.844C241.459 47.2253 241.906 47.416 242.493 47.416C243.094 47.416 243.571 47.152 243.923 46.624C244.275 46.096 244.451 45.48 244.451 44.776C244.451 44.0573 244.311 43.4047 244.033 42.818L245.177 42.466ZM255.486 40.442L256.344 40.64C256.329 40.7427 256.116 41.19 255.706 41.982C255.31 42.7593 254.884 43.786 254.43 45.062C253.975 46.3233 253.682 47.5993 253.55 48.89L252.142 48.78C252.142 47.9733 252.398 46.932 252.912 45.656C252.78 45.6413 252.508 45.634 252.098 45.634C251.702 45.634 250.968 45.7293 249.898 45.92C249.15 47.592 248.776 49.022 248.776 50.21L247.302 50.012C247.302 48.9707 247.69 47.6873 248.468 46.162C247.72 46.2793 246.972 46.4553 246.224 46.69L246.004 45.832C246.004 45.788 246.392 45.6633 247.17 45.458C247.962 45.2527 248.548 45.1207 248.93 45.062C250.103 42.3633 250.902 40.8013 251.328 40.376L252.274 40.75C252.2 40.8967 252.032 41.2267 251.768 41.74C251.108 43.016 250.66 44.0133 250.426 44.732C251.702 44.6 252.464 44.534 252.714 44.534C252.978 44.534 253.198 44.5413 253.374 44.556C254.4 42.1947 255.104 40.8233 255.486 40.442ZM266.492 46.426L266.954 46.8C266.705 47.416 266.309 47.9367 265.766 48.362C265.238 48.7873 264.754 49 264.314 49C263.889 49 263.552 48.8533 263.302 48.56C263.053 48.252 262.928 47.856 262.928 47.372C262.928 46.888 263.009 46.2647 263.17 45.502C262.481 46.5873 261.74 47.438 260.948 48.054C260.156 48.67 259.489 48.978 258.946 48.978C258.125 48.978 257.714 48.4867 257.714 47.504C257.714 46.5213 258.052 45.2013 258.726 43.544C259.416 41.872 259.907 40.9187 260.2 40.684L261.256 41.146C260.655 42.114 260.2 43.0673 259.892 44.006C259.584 44.9447 259.43 45.5753 259.43 45.898C259.43 46.206 259.526 46.4553 259.716 46.646C259.922 46.8367 260.156 46.932 260.42 46.932C261.007 46.932 261.733 46.3967 262.598 45.326C263.478 44.2407 264.373 42.6273 265.282 40.486L266.404 40.992C266.375 41.1093 266.038 41.96 265.392 43.544C264.762 45.128 264.446 46.0813 264.446 46.404C264.446 46.712 264.512 46.9467 264.644 47.108C264.791 47.2693 264.93 47.35 265.062 47.35C265.209 47.35 265.319 47.3427 265.392 47.328C265.466 47.3133 265.539 47.284 265.612 47.24C265.686 47.196 265.744 47.1593 265.788 47.13C265.847 47.1007 265.913 47.0493 265.986 46.976L266.14 46.8C266.184 46.7707 266.243 46.712 266.316 46.624C266.404 46.5213 266.463 46.4553 266.492 46.426ZM276.26 46.558L276.81 47.042C275.96 48.4353 275.058 49.132 274.104 49.132C273.562 49.132 273.004 48.78 272.432 48.076C271.875 47.372 271.538 46.69 271.42 46.03C271.332 46.1913 271.083 46.6167 270.672 47.306C270.262 47.9953 269.968 48.56 269.792 49L268.472 48.538C268.78 46.734 269.154 45.0327 269.594 43.434C270.049 41.8353 270.474 40.7133 270.87 40.068L271.772 40.354C271.508 41.0287 271.068 42.8253 270.452 45.744C271.259 44.0867 272.073 42.8767 272.894 42.114C273.716 41.3367 274.618 40.8233 275.6 40.574V42.026C274.544 42.07 273.525 42.7813 272.542 44.16C272.601 45.1133 272.88 45.9053 273.378 46.536C273.892 47.1667 274.376 47.482 274.83 47.482C275.05 47.482 275.527 47.174 276.26 46.558ZM287.769 46.778L288.275 47.152C288.069 47.592 287.688 48.01 287.131 48.406C286.588 48.802 286.089 49 285.635 49C284.769 49 284.337 48.5453 284.337 47.636C284.337 47.2107 284.447 46.7047 284.667 46.118L283.853 46.954C283.061 47.7607 282.371 48.3033 281.785 48.582C281.213 48.8607 280.648 49 280.091 49C279.533 49 279.108 48.846 278.815 48.538C278.536 48.2153 278.397 47.7753 278.397 47.218C278.397 46.1913 278.793 45.1793 279.585 44.182C280.377 43.17 281.389 42.3487 282.621 41.718C283.853 41.0873 285.085 40.7647 286.317 40.75L286.361 41.476L285.437 41.674C284.102 41.9673 282.921 42.554 281.895 43.434C280.883 44.314 280.377 45.194 280.377 46.074C280.377 46.9393 280.729 47.372 281.433 47.372C282.093 47.372 282.907 46.91 283.875 45.986C284.843 45.062 285.649 43.9767 286.295 42.73L287.219 43.28C286.309 45.1133 285.855 46.2793 285.855 46.778C285.855 46.9833 285.921 47.1593 286.053 47.306C286.199 47.438 286.339 47.504 286.471 47.504C286.617 47.504 286.713 47.4967 286.757 47.482C286.801 47.4673 286.845 47.4527 286.889 47.438C286.933 47.4087 286.984 47.372 287.043 47.328C287.116 47.284 287.175 47.24 287.219 47.196C287.277 47.152 287.365 47.086 287.483 46.998C287.6 46.91 287.695 46.8367 287.769 46.778Z" fill="white"/>
<path d="M163.62 18.04L163.52 19.24C163.213 19.2133 162.88 19.2 162.52 19.2C162.173 19.2 161.88 19.2067 161.64 19.22C161.453 20.6867 161.333 22.28 161.28 24H159.88C159.8 23.6533 159.76 23.1933 159.76 22.62C159.76 22.0467 159.773 21.5533 159.8 21.14C159.84 20.7133 159.887 20.2933 159.94 19.88C159.993 19.4667 160.02 19.2267 160.02 19.16C159.833 19.1467 159.393 19.14 158.7 19.14C158.007 19.14 157.527 19.1533 157.26 19.18C155.713 21.26 154.287 22.84 152.98 23.92C151.673 24.9867 150.367 25.52 149.06 25.52C148.42 25.52 147.88 25.3267 147.44 24.94C147.013 24.5533 146.8 24.04 146.8 23.4C146.8 22.1867 147.72 21.08 149.56 20.08C151.413 19.08 153.807 18.4067 156.74 18.06C157.087 17.5267 157.733 16.7067 158.68 15.6C159.627 14.48 160.56 13.5067 161.48 12.68C161.88 11.7467 162.193 11.1 162.42 10.74C162.66 10.3667 162.893 10.18 163.12 10.18C163.347 10.18 163.533 10.2667 163.68 10.44C163.827 10.6133 163.9 10.84 163.9 11.12C163.9 11.3867 163.747 11.7867 163.44 12.32C163.147 12.84 162.84 13.6533 162.52 14.76C162.2 15.8533 161.98 16.8867 161.86 17.86C162.553 17.86 163.14 17.92 163.62 18.04ZM153.42 22.22C154.527 21.1667 155.36 20.1667 155.92 19.22C153.68 19.3533 151.947 19.7733 150.72 20.48C149.507 21.1867 148.9 21.94 148.9 22.74C148.9 23.0867 149.013 23.36 149.24 23.56C149.48 23.76 149.793 23.86 150.18 23.86C151.22 23.86 152.3 23.3133 153.42 22.22ZM160.26 17.86C160.353 17.4067 160.473 16.84 160.62 16.16C160.78 15.4667 160.873 15.06 160.9 14.94C160.26 15.5533 159.813 16.0067 159.56 16.3C159.307 16.58 158.86 17.1267 158.22 17.94C158.447 17.9267 158.72 17.92 159.04 17.92C159.373 17.9067 159.647 17.8933 159.86 17.88C160.073 17.8667 160.207 17.86 160.26 17.86ZM173.711 23.28L173.731 23.76C173.598 23.84 172.991 24.08 171.911 24.48C171.485 27.0267 170.858 28.8667 170.031 30C169.205 31.1333 168.191 31.7 166.991 31.7C166.431 31.7 165.985 31.52 165.651 31.16C165.318 30.8 165.151 30.3333 165.151 29.76C165.151 28.6133 165.678 27.54 166.731 26.54C167.785 25.5533 169.191 24.7733 170.951 24.2C171.151 23.3067 171.511 22.0467 172.031 20.42C171.138 21.78 170.325 22.7 169.591 23.18C168.871 23.66 168.218 23.9 167.631 23.9C167.045 23.9 166.598 23.74 166.291 23.42C165.998 23.1 165.851 22.6733 165.851 22.14C165.851 21.26 166.218 20.3667 166.951 19.46C167.685 18.54 168.605 17.7933 169.711 17.22C170.831 16.6333 171.911 16.34 172.951 16.34L173.111 17.04C171.631 17.2 170.358 17.72 169.291 18.6C168.238 19.48 167.711 20.3267 167.711 21.14C167.711 21.4867 167.818 21.7733 168.031 22C168.245 22.2267 168.505 22.34 168.811 22.34C169.265 22.34 169.951 21.86 170.871 20.9C171.791 19.94 172.438 19.12 172.811 18.44L173.551 18.86C172.818 20.82 172.311 22.4733 172.031 23.82L173.711 23.28ZM170.831 24.8C169.671 25.3333 168.711 25.9733 167.951 26.72C167.191 27.4667 166.811 28.1467 166.811 28.76C166.811 29.08 166.905 29.34 167.091 29.54C167.278 29.74 167.511 29.84 167.791 29.84C168.351 29.84 168.905 29.4467 169.451 28.66C169.998 27.8733 170.458 26.5867 170.831 24.8ZM176.866 17.72C176.546 19.24 176.38 20.3467 176.366 21.04C176.366 21.9867 176.64 22.46 177.186 22.46C177.773 22.46 178.3 22.2067 178.766 21.7C179.233 21.1933 179.466 20.6 179.466 19.92C179.466 19.24 179.213 18.9 178.706 18.9C178.56 18.9 178.24 18.9867 177.746 19.16L177.506 18.56C178.36 17.96 179.033 17.66 179.526 17.66C180.446 17.66 180.906 18.12 180.906 19.04C180.906 20.12 180.453 21.22 179.546 22.34C178.653 23.4467 177.713 24 176.726 24C175.646 24 175.106 23.2267 175.106 21.68C175.106 20.9467 175.313 19.7333 175.726 18.04L174.106 18.64L174.086 18.16C174.22 18.08 174.826 17.84 175.906 17.44C176.36 14.7733 176.986 12.9067 177.786 11.84C178.586 10.76 179.6 10.22 180.826 10.22C181.386 10.22 181.833 10.4 182.166 10.76C182.5 11.12 182.666 11.5867 182.666 12.16C182.666 13.3067 182.14 14.38 181.086 15.38C180.033 16.3667 178.626 17.1467 176.866 17.72ZM176.986 17.12C178.146 16.5867 179.106 15.9467 179.866 15.2C180.626 14.4533 181.006 13.7733 181.006 13.16C181.006 12.84 180.913 12.58 180.726 12.38C180.54 12.18 180.306 12.08 180.026 12.08C179.466 12.08 178.913 12.4733 178.366 13.26C177.82 14.0467 177.36 15.3333 176.986 17.12ZM188.995 18.06C189.341 18.6333 189.515 19.2667 189.515 19.96C189.515 21.04 189.141 22.0067 188.395 22.86C187.648 23.7 186.768 24.12 185.755 24.12C184.981 24.12 184.375 23.9 183.935 23.46C183.508 23.0067 183.295 22.3867 183.295 21.6C183.295 20.3333 183.788 19.2 184.775 18.2C185.761 17.1867 186.868 16.68 188.095 16.68C188.321 16.68 188.481 16.6867 188.575 16.7L188.635 17.36C187.568 17.36 186.681 17.6667 185.975 18.28C185.268 18.8933 184.915 19.68 184.915 20.64C184.915 21.2133 185.055 21.68 185.335 22.04C185.615 22.3867 186.021 22.56 186.555 22.56C187.101 22.56 187.535 22.32 187.855 21.84C188.175 21.36 188.335 20.8 188.335 20.16C188.335 19.5067 188.208 18.9133 187.955 18.38L188.995 18.06ZM197.506 21.78L198.006 22.22C197.233 23.4867 196.413 24.12 195.546 24.12C195.053 24.12 194.546 23.8 194.026 23.16C193.52 22.52 193.213 21.9 193.106 21.3C193.026 21.4467 192.8 21.8333 192.426 22.46C192.053 23.0867 191.786 23.6 191.626 24L190.426 23.58C190.706 21.94 191.046 20.3933 191.446 18.94C191.86 17.4867 192.246 16.4667 192.606 15.88L193.426 16.14C193.186 16.7533 192.786 18.3867 192.226 21.04C192.96 19.5333 193.7 18.4333 194.446 17.74C195.193 17.0333 196.013 16.5667 196.906 16.34V17.66C195.946 17.7 195.02 18.3467 194.126 19.6C194.18 20.4667 194.433 21.1867 194.886 21.76C195.353 22.3333 195.793 22.62 196.206 22.62C196.406 22.62 196.84 22.34 197.506 21.78ZM207.968 21.98L208.428 22.32C208.242 22.72 207.895 23.1 207.388 23.46C206.895 23.82 206.442 24 206.028 24C205.242 24 204.848 23.5867 204.848 22.76C204.848 22.3733 204.948 21.9133 205.148 21.38L204.408 22.14C203.688 22.8733 203.062 23.3667 202.528 23.62C202.008 23.8733 201.495 24 200.988 24C200.482 24 200.095 23.86 199.828 23.58C199.575 23.2867 199.448 22.8867 199.448 22.38C199.448 21.4467 199.808 20.5267 200.528 19.62C201.248 18.7 202.168 17.9533 203.288 17.38C204.408 16.8067 205.528 16.5133 206.648 16.5L206.688 17.16L205.848 17.34C204.635 17.6067 203.562 18.14 202.628 18.94C201.708 19.74 201.248 20.54 201.248 21.34C201.248 22.1267 201.568 22.52 202.208 22.52C202.808 22.52 203.548 22.1 204.428 21.26C205.308 20.42 206.042 19.4333 206.628 18.3L207.468 18.8C206.642 20.4667 206.228 21.5267 206.228 21.98C206.228 22.1667 206.288 22.3267 206.408 22.46C206.542 22.58 206.668 22.64 206.788 22.64C206.922 22.64 207.008 22.6333 207.048 22.62C207.088 22.6067 207.128 22.5933 207.168 22.58C207.208 22.5533 207.255 22.52 207.308 22.48C207.375 22.44 207.428 22.4 207.468 22.36C207.522 22.32 207.602 22.26 207.708 22.18C207.815 22.1 207.902 22.0333 207.968 21.98ZM222.713 21.4L223.133 21.8C222.373 23.16 221.5 23.84 220.513 23.84C220.113 23.84 219.8 23.7333 219.573 23.52C219.36 23.2933 219.253 23 219.253 22.64C219.253 22.2667 219.473 21.6333 219.913 20.74C220.353 19.8467 220.587 19.1667 220.613 18.7C220.627 18.4867 220.56 18.3133 220.413 18.18C220.28 18.0467 220.093 17.98 219.853 17.98C219.613 17.98 219.367 18.04 219.113 18.16C218.873 18.2667 218.633 18.4467 218.393 18.7C218.167 18.9533 217.953 19.2 217.753 19.44C217.567 19.68 217.353 20.02 217.113 20.46C216.887 20.9 216.693 21.2667 216.533 21.56C216.253 22.1067 215.853 22.9267 215.333 24.02L214.133 23.6C214.133 23.56 214.353 22.8067 214.793 21.34C215.233 19.8733 215.453 19 215.453 18.72C215.453 18.44 215.387 18.24 215.253 18.12C215.12 17.9867 214.953 17.92 214.753 17.92C214.153 17.92 213.32 18.6667 212.253 20.16C211.2 21.6533 210.527 22.9267 210.233 23.98L209.093 23.6C209.16 22.8933 209.473 21.6267 210.033 19.8C210.593 17.96 211.067 16.7067 211.453 16.04L212.353 16.36C211.94 17.28 211.653 18.06 211.493 18.7C211.333 19.3267 211.193 20 211.073 20.72C212.22 19.08 213.18 17.9333 213.953 17.28C214.727 16.6133 215.427 16.28 216.053 16.28C216.733 16.28 217.073 16.62 217.073 17.3C217.073 17.5667 216.953 18.0933 216.713 18.88C216.487 19.6667 216.307 20.2867 216.173 20.74C218.013 17.78 219.66 16.3 221.113 16.3C221.473 16.3 221.76 16.4133 221.973 16.64C222.187 16.8533 222.293 17.18 222.293 17.62C222.293 18.0467 222.04 18.76 221.533 19.76C221.04 20.76 220.793 21.3933 220.793 21.66C220.793 21.9133 220.847 22.1 220.953 22.22C221.06 22.34 221.193 22.4 221.353 22.4C221.7 22.4 222.153 22.0667 222.713 21.4Z" fill="white"/>
<path d="M72.0623 0.153436L71.9651 0.31234L72.419 0.630149C73.0414 1.0685 73.5472 1.57809 74.2474 2.46576C75.4794 4.03289 76.8475 5.62193 77.4764 6.21919C77.6709 6.40001 78.06 6.71234 78.3453 6.90412C80.0829 8.09864 81.3343 8.93152 81.3992 8.93152C81.4316 8.93152 81.5159 8.89864 81.5872 8.86029C81.6974 8.78357 81.6974 8.76713 81.5613 8.27946C81.1333 6.79453 80.2904 5.02467 79.5642 4.09864C78.5592 2.81645 76.5362 1.49042 74.3641 0.679463C73.8389 0.487682 72.2828 1.14441e-05 72.1791 1.14441e-05C72.1661 1.14441e-05 72.1142 0.0712442 72.0623 0.153436Z" fill="#B48484"/>
<path d="M27.3043 0.67942C24.5486 1.52874 22.0523 3.02463 20.8463 4.55339C20.1525 5.43559 19.4328 6.95887 18.9919 8.46572C18.6871 9.52326 18.6871 9.46298 18.9011 9.55065C19.0827 9.62737 19.0827 9.62737 20.4119 8.67394C22.3506 7.27668 22.6877 7.01367 23.1481 6.50956C23.6992 5.9123 24.9571 4.36709 25.5795 3.53969C26.604 2.15887 26.7985 1.93969 27.4988 1.34791C28.1472 0.799969 28.199 0.739695 28.1342 0.624626C28.0499 0.460242 28.024 0.460242 27.3043 0.67942Z" fill="#B48484"/>
<path d="M80.4266 3.53422C80.3228 3.66572 80.3293 3.68764 80.9129 4.49312C81.8336 5.78079 81.9827 6.13696 82.696 8.76709C83.1109 10.3013 83.5324 11.5726 83.8177 12.1589C83.9279 12.3835 84.0187 12.5753 84.0187 12.5918C84.0187 12.6137 83.889 12.4493 83.7334 12.2301C82.858 11.0301 82.0605 10.3781 80.07 9.20545C78.2999 8.16435 76.8604 7.06846 76.3677 6.39449C76.1602 6.10956 76.1278 6.08216 75.9527 6.10956C75.8489 6.126 75.7517 6.14792 75.7387 6.15887C75.6933 6.19175 75.9786 7.2712 76.1342 7.64929C76.4714 8.49312 76.815 8.96983 77.8979 10.115C78.7862 11.052 79.2789 11.452 81.8141 13.2876C83.9538 14.8438 84.1159 14.9753 84.9199 15.8191L85.4581 16.3781L85.6202 16.2904C85.7369 16.2246 85.7693 16.1698 85.7434 16.0822C85.6202 15.6712 85.5748 14.5479 85.6396 13.5178C85.7758 11.2822 85.7823 10.8657 85.711 10.1698C85.5424 8.51504 85.0237 7.19997 84.077 5.99997C83.5324 5.30956 82.3847 4.37805 81.4316 3.84655C80.9907 3.59997 80.6081 3.39723 80.5822 3.39723C80.5563 3.39723 80.4849 3.4575 80.4266 3.53422Z" fill="#B48484"/>
<path d="M19.0695 4.39448C16.4565 5.90133 15.0884 7.83558 14.7771 10.4602C14.6799 11.2602 14.6928 11.8356 14.8355 13.3698C14.9781 14.8219 15.0041 16.1096 14.9003 16.6246C14.842 16.9205 14.8485 16.9534 14.9846 17.0411C15.0624 17.0959 15.1467 17.1287 15.1727 17.1178C15.1921 17.1068 15.4774 16.8054 15.7951 16.4493C16.4759 15.6986 17.0919 15.1835 19.2121 13.5726C21.2286 12.0493 21.8576 11.4959 22.7588 10.4822C23.7638 9.35339 24.2112 8.56435 24.4576 7.50681C24.6521 6.63558 24.6586 6.70133 24.4187 6.6575C24.289 6.6301 24.1983 6.64106 24.1853 6.67394C24.1723 6.70681 24.0232 6.90407 23.8416 7.11777C23.1543 7.95065 22.1688 8.71229 20.1264 9.99449C18.4276 11.063 17.5069 11.8685 16.8001 12.9096C16.6704 13.1013 16.5537 13.2493 16.5408 13.2438C16.5343 13.2328 16.6121 13.0411 16.7158 12.8164C16.9817 12.2356 17.3707 10.926 17.7857 9.19997C17.9802 8.37257 18.2201 7.46298 18.3109 7.17805C18.4989 6.57531 18.9074 5.81914 19.5298 4.93695L19.9707 4.31229L19.8151 4.18079L19.6595 4.05476L19.0695 4.39448Z" fill="#B48484"/>
<path d="M86.3982 8.63015C86.2815 8.70138 86.2815 8.7233 86.4695 9.13426C86.891 10.0712 87.0271 10.9096 86.9299 12.011C86.891 12.411 86.7808 13.8685 86.6835 15.2438L86.5084 17.748L86.677 19.326C86.7743 20.1918 86.8391 20.9151 86.8326 20.926C86.8197 20.937 86.7937 20.8712 86.7743 20.7891C86.489 19.6712 85.8925 18.3507 85.3024 17.5397C84.9458 17.0466 84.265 16.4438 81.6455 14.2904C80.9971 13.7589 80.3487 13.1945 80.1996 13.0247C79.9726 12.7726 79.9078 12.7343 79.7652 12.7562C79.5382 12.7891 79.5188 12.8603 79.6031 13.326C79.7652 14.2192 80.2968 15.5123 80.8998 16.4658C81.1851 16.9206 82.3587 18.3726 84.2326 20.5918C85.4905 22.0822 86.1388 23.0904 86.7808 24.5754C86.9104 24.8767 86.9688 24.9315 87.1763 24.9315C87.2865 24.9315 87.3319 24.8877 87.3643 24.7781C87.7209 23.4521 88.2915 21.7206 88.7843 20.4384C89.517 18.5315 89.7115 17.7041 89.7698 16.1918C89.8476 14.2521 89.4392 12.6356 88.4341 10.9315C87.8441 9.91782 86.7743 8.54247 86.5862 8.54795C86.5473 8.54795 86.463 8.58631 86.3982 8.63015Z" fill="#B48484"/>
<path d="M13.3959 9.73695C12.0927 11.2876 11.3794 12.7397 10.932 14.7671C10.8218 15.2822 10.8218 17.4685 10.932 18.0548C11.1266 19.0465 11.3794 19.8411 12.0473 21.5342C12.4363 22.515 12.9161 23.8191 13.1171 24.4383C13.3181 25.0575 13.4932 25.5945 13.5126 25.6328C13.5256 25.6767 13.6164 25.6986 13.7331 25.6876C13.9211 25.6712 13.9471 25.6438 14.1156 25.2328C14.7705 23.6548 15.3152 22.8274 17.4808 20.0822C19.802 17.1561 20.2429 16.4383 20.7357 14.8054C20.8459 14.4328 21.008 13.4849 20.9626 13.4411C20.9562 13.4301 20.8654 13.4137 20.7616 13.3972C20.5931 13.3698 20.5542 13.3917 20.3467 13.6548C20.2235 13.8137 19.186 14.7452 18.0384 15.726C15.7496 17.6822 15.4643 17.989 14.8937 19.0685C14.576 19.6712 14.2259 20.5753 13.9989 21.3698C13.9081 21.6822 13.8757 21.7534 13.8952 21.589C13.9081 21.452 13.9665 20.6904 14.0313 19.8904L14.1416 18.4383L13.9017 15.9726C13.7655 14.6137 13.6229 13.1616 13.584 12.7397C13.4672 11.5835 13.571 10.8054 13.9924 9.78627C14.0638 9.60544 14.1156 9.4575 14.1091 9.45202C14.0702 9.42462 13.8044 9.31503 13.7785 9.31503C13.7655 9.31503 13.5904 9.50681 13.3959 9.73695Z" fill="#B48484"/>
<path d="M34.9747 10.3672C34.9228 10.4384 32.3811 14.3398 29.3272 19.0411L23.7705 27.5891L24.3605 28.0658C25.2813 28.811 26.7272 29.748 27.6803 30.2137L27.9786 30.3562H35.0655H42.1524L42.8915 29.9398C43.3 29.7151 43.916 29.337 44.2596 29.1014C44.8886 28.674 46.2826 27.6274 46.2826 27.5836C46.2826 27.5672 46.2437 27.5014 46.1919 27.4357C45.9779 27.1507 35.4545 10.9425 35.4545 10.8987C35.4545 10.8713 38.3658 10.8494 42.6192 10.8494H49.7839V11.0576C49.7839 11.1726 49.4662 14.6466 49.0707 18.7726C48.6817 22.8987 48.2602 27.3973 48.1305 28.7672C48.0073 30.137 47.8712 31.4795 47.8323 31.7535C47.6313 33.1288 46.944 34.1206 45.8871 34.5589L45.4592 34.7398H39.5329H33.6066L33.2824 34.8713C32.8545 35.0357 32.5043 35.3699 32.3811 35.7315C32.2515 36.0877 32.2515 36.0768 32.3811 36.4329C32.4978 36.7672 32.8285 37.1069 33.2111 37.2768L33.4769 37.3973L50.562 37.4137C69.495 37.4247 67.9713 37.4576 68.5095 37.0685C68.8596 36.811 69.0476 36.4658 69.0476 36.0932C69.0476 35.5891 68.7688 35.1946 68.2047 34.9151L67.9064 34.7672L61.7143 34.7398L55.5222 34.7124L55.1332 34.548C54.1282 34.1206 53.4344 33.1124 53.2269 31.7809C53.188 31.5233 53.0259 29.874 52.8638 28.1096C52.6952 26.3452 52.2673 21.7535 51.9042 17.9014C51.5346 14.0494 51.2493 10.8877 51.2687 10.8713C51.2817 10.8603 54.5042 10.8494 58.427 10.8494C65.1897 10.8494 65.5528 10.8548 65.5074 10.9425C65.488 10.9973 63.0435 14.7617 60.0739 19.3096L54.6858 27.5836L55.2369 28.0165C58.0509 30.2411 61.0659 31.5726 64.1652 31.9507C64.9692 32.0494 65.2999 32.0658 66.2855 32.0384C67.5369 32.0055 68.1917 31.9233 69.3459 31.6713C71.8746 31.1069 74.6692 29.737 76.7116 28.0603L77.2822 27.5891L76.2253 25.9726C75.6417 25.085 73.0936 21.1836 70.5648 17.2987L65.9678 10.2466H50.5166H35.0655L34.9747 10.3672ZM40.084 19.2548C42.8526 23.5014 45.1155 26.9863 45.1155 26.9973C45.1155 27.0083 40.5768 27.0137 35.0266 27.0137C29.4763 27.0137 24.9506 26.9918 24.9635 26.9699C25.0284 26.8329 35.0201 11.5069 35.0331 11.5178C35.046 11.5288 37.3154 15.0083 40.084 19.2548ZM71.116 19.3589L76.0956 26.9863L66.0067 27.0028C60.4629 27.0083 55.9112 27.0028 55.8983 26.9918C55.8853 26.9809 58.1417 23.485 60.9103 19.2329C65.6371 11.9781 65.9613 11.5014 66.0456 11.611C66.0974 11.6713 68.3798 15.1617 71.116 19.3589Z" fill="#B48484"/>
<path d="M90.5028 18.6411C90.5028 19.4192 90.4055 20.3178 90.2499 20.9644C90.1267 21.4794 89.8868 22.0383 88.9985 23.9178C88.3631 25.2548 87.7147 26.7397 87.5266 27.2712C87.4488 27.4904 87.2867 28.1698 87.1635 28.7781C86.9431 29.9123 86.8069 30.4876 86.7745 30.4548C86.768 30.4438 86.781 30.2027 86.8069 29.9178C86.8912 28.9479 86.7356 27.6603 86.4114 26.6301C86.0289 25.4192 85.5815 24.6192 84.168 22.6301C82.962 20.926 82.8128 20.6904 82.5924 20.1753C82.4627 19.8685 82.4303 19.8356 82.2617 19.8356C82.1644 19.8356 82.0672 19.852 82.0542 19.874C81.9959 19.9561 82.1385 21.5123 82.2682 22.3287C82.6313 24.5205 83.0657 26.115 83.8697 28.1918C84.7061 30.3671 85.0239 31.4411 85.1924 32.6411C85.2638 33.1397 85.2378 34.1972 85.1535 34.4383C85.1211 34.526 85.1535 34.5644 85.3091 34.6082L85.4972 34.674L85.9381 34.0931C86.4827 33.3808 87.2543 32.4822 88 31.6931C90.412 29.1616 91.618 26.4109 91.7152 23.2055C91.7671 21.5507 91.605 20.3068 91.1382 18.7233L90.9307 18.0274H90.7167H90.5028V18.6411Z" fill="#B48484"/>
<path d="M9.73919 18.926C9.67435 19.0958 9.4539 19.9177 9.36312 20.3287C9.05838 21.726 8.97409 23.7753 9.16212 25.041C9.58358 27.8849 10.8285 30.2684 13.0914 32.5479C13.9472 33.4136 15.2375 34.8766 15.5942 35.3917C15.6006 35.4027 15.6979 35.3808 15.8081 35.3424C15.9378 35.2986 15.9962 35.2438 15.9767 35.1944C15.9508 35.1506 15.9054 34.8821 15.8665 34.6027C15.7044 33.4191 16.0675 31.726 17.1373 28.7397C17.6755 27.2164 17.9089 26.378 18.2007 24.8766C18.4795 23.452 18.5962 22.526 18.6416 21.4739L18.6805 20.5643L18.5249 20.5314C18.285 20.4766 18.285 20.4766 18.1877 20.7506C18.0321 21.1999 17.7403 21.6766 16.7872 23.0958C15.6979 24.7013 15.257 25.4246 14.9458 26.1369C14.265 27.6876 13.9926 29.5068 14.2196 31.041C14.2974 31.5671 14.1093 30.915 13.7981 29.6054C13.448 28.0986 13.221 27.5232 12.242 25.5616C10.7053 22.4876 10.6275 22.3177 10.4654 21.6602C10.2903 20.9588 10.1671 19.9944 10.1671 19.3369V18.915L9.96613 18.8931C9.8559 18.8766 9.75864 18.8931 9.73919 18.926Z" fill="#B48484"/>
<path d="M82.2358 28.5753C81.5939 30.3506 81.2178 32.6794 81.0038 36.2739C80.8612 38.6027 80.7056 39.852 80.4462 40.7342C80.3749 40.9698 80.1155 41.5944 79.8627 42.1205C79.4347 43.0355 79.4153 43.0849 79.519 43.1835C79.5774 43.2438 79.6681 43.2876 79.7135 43.2876C79.8302 43.2876 83.2213 41.3643 84.2263 40.7287C88.1685 38.2246 90.3277 36.0164 91.3457 33.441C91.8773 32.0931 92.1043 30.5534 91.9551 29.3205C91.9098 28.9917 91.9098 28.9862 91.7088 28.9862C91.5207 28.9862 91.4948 29.0081 91.3846 29.2712C91.1706 29.7917 90.6 30.8109 90.2304 31.3424C89.6015 32.241 89.0763 32.8164 88.0713 33.6931C87.1246 34.5205 86.5087 35.1397 85.763 35.9999C85.2184 36.6301 84.0188 38.0986 83.5261 38.7397C82.9749 39.4575 82.5859 39.9013 82.5405 39.8629C82.5211 39.8465 82.5989 39.726 82.7156 39.589C83.1889 39.0301 83.5909 38.0876 83.7919 37.041C83.9216 36.3616 83.941 34.5753 83.8308 33.7534C83.7919 33.4684 83.552 32.2849 83.2991 31.1232C83.0463 29.9616 82.8258 28.8328 82.7999 28.6081C82.7545 28.2191 82.7415 28.1972 82.5794 28.1588C82.3979 28.1205 82.3979 28.126 82.2358 28.5753Z" fill="#B48484"/>
<path d="M18.259 28.8603C18.1618 28.8822 18.1423 28.9479 18.1423 29.2493C18.1423 29.452 17.9672 30.5425 17.7598 31.6712C17.2605 34.3342 17.2151 34.7561 17.254 36.1753C17.2864 37.4027 17.3578 37.874 17.6625 38.7397C17.8376 39.2274 18.2655 40.0055 18.46 40.1918C18.5249 40.252 18.6286 40.3726 18.6934 40.4657C18.9269 40.8055 18.3433 40.2137 17.7727 39.5178C15.5682 36.8657 14.6799 35.9233 13.2081 34.6575C11.9437 33.5781 11.6843 33.3151 11.0813 32.5589C10.6339 32 9.8883 30.8109 9.61597 30.2301C9.46684 29.9233 9.41497 29.863 9.28529 29.863C9.05187 29.863 9 30.0219 9 30.7123C9 32.3781 9.39552 33.8082 10.2644 35.3205C11.8659 38.0931 14.7058 40.3288 20.4441 43.3151C21.0082 43.6109 21.5269 43.863 21.5917 43.8794C21.6566 43.8904 21.7668 43.863 21.8316 43.8137C21.9484 43.7205 21.9354 43.6877 21.4686 42.7781C21.2027 42.2575 20.9304 41.6603 20.8655 41.452C20.5673 40.5425 20.3533 39.1616 20.1523 36.8219C19.8541 33.4794 19.478 31.4137 18.8231 29.5178C18.5702 28.8 18.5638 28.7945 18.259 28.8603Z" fill="#B48484"/>
<path d="M79.1365 35.9507C78.527 36.4712 77.9823 37.1726 77.3404 38.274C76.893 39.0356 76.6726 39.5397 75.6287 42.1753C74.9673 43.8411 74.293 45.4685 74.1309 45.7918C73.4695 47.0849 72.5034 48.5096 71.9523 48.9972C71.68 49.2438 71.654 49.2986 71.7837 49.4411C71.855 49.5287 71.9199 49.5178 72.672 49.3424C74.0401 49.0137 75.1748 48.7835 76.5623 48.5479C80.0961 47.9507 82.8323 46.7233 85.2184 44.652C86.956 43.1452 88.1685 41.4411 89.0503 39.2767L89.1995 38.9041L89.0568 38.8219C88.979 38.7781 88.9012 38.7397 88.8753 38.7397C88.8493 38.7397 88.4214 39.1397 87.9221 39.6274C86.4114 41.1178 85.5879 41.7315 84.3754 42.2794C81.5614 43.5452 76.8801 46.0548 75.7519 46.8986C75.6481 46.9753 75.7194 46.8822 75.914 46.6959C77.6646 44.9753 78.6048 43.1507 78.929 40.8383C79.2856 38.2904 79.4606 37.3589 79.7719 36.3287L79.9275 35.8082L79.7719 35.6767L79.6163 35.5452L79.1365 35.9507Z" fill="#B48484"/>
<path d="M21.3585 36.3233C21.2483 36.4275 21.2483 36.4603 21.4363 37.0795C21.7734 38.1754 22.1171 39.7809 22.2922 41.0411C22.6358 43.5562 23.7899 45.737 25.573 47.2603C25.7805 47.4411 25.8907 47.5507 25.8194 47.5069C25.7416 47.4631 25.385 47.2439 25.0284 47.0302C23.3296 45.9946 20.4896 44.5644 17.4292 43.2055C15.4063 42.3069 14.9329 41.9727 12.5922 39.737C12.4107 39.5617 12.3848 39.5507 12.2356 39.6165C12.1513 39.6548 12.0735 39.6932 12.067 39.6987C12.0281 39.7206 12.3977 40.5535 12.7025 41.1453C14.2262 44.0439 16.6836 46.2795 19.9126 47.6987C21.5789 48.4329 22.9989 48.8275 24.9181 49.1014C26.2084 49.2822 27.3885 49.4959 28.7047 49.7809C29.1845 49.885 29.6125 49.9727 29.6514 49.9727C29.6968 49.9727 29.7616 49.9124 29.8005 49.8411C29.8589 49.7261 29.8459 49.6932 29.6708 49.5562C29.3726 49.3151 28.7631 48.6083 28.3416 48.011C27.5506 46.8713 26.9995 45.7918 25.9231 43.2603C25.3526 41.9014 24.7625 40.5206 24.6199 40.1918C24.2957 39.4466 23.6538 38.3946 23.0832 37.6713C22.6747 37.1507 21.6827 36.2192 21.54 36.2192C21.5011 36.2192 21.4168 36.2685 21.3585 36.3233Z" fill="#B48484"/>
<path d="M73.6121 43.1342C72.8794 43.4575 71.9457 44.2191 70.0265 46.0547C68.4833 47.5287 66.7392 49.0027 65.9805 49.4794C64.9301 50.1424 62.8229 51.0301 61.7336 51.2657C61.2797 51.3643 61.2603 51.3698 61.2603 51.5342V51.6986L64.1326 52.1808C65.7082 52.4438 67.6274 52.7835 68.3925 52.9369C69.7607 53.2109 69.806 53.2164 71.051 53.2438C72.0171 53.2657 72.4969 53.2493 73.0804 53.1835C75.5897 52.8876 78.0341 52.0109 79.8691 50.7561C80.8416 50.0876 81.9698 49.0356 82.5923 48.2191L82.8063 47.9397L82.6701 47.8191L82.5339 47.7041L82.1579 47.9561C80.5434 49.0246 78.4361 49.7369 76.1084 49.9999C75.6999 50.0438 74.6625 50.1041 73.8066 50.1369C71.9846 50.1972 70.2469 50.378 67.9127 50.7451C67.5302 50.8054 67.1995 50.8438 67.1865 50.8328C67.1736 50.8219 67.4135 50.7342 67.7312 50.6301C68.9372 50.2465 69.5726 49.9013 70.3442 49.2219C71.3427 48.3397 72.2505 47.0082 73.3592 44.7999C73.6964 44.1314 74.0271 43.5232 74.0984 43.441C74.2021 43.326 74.2151 43.2657 74.1632 43.1506C74.0854 42.9862 73.9557 42.9808 73.6121 43.1342Z" fill="#B48484"/>
<path d="M27.1874 43.6767C27.1549 43.8028 27.1744 43.874 27.2717 43.9617C27.343 44.0274 27.6542 44.5589 27.9589 45.1343C29.139 47.3754 29.9495 48.548 30.9804 49.4959C31.7391 50.1973 32.4782 50.5918 33.7102 50.9644C34.4169 51.1781 34.6892 51.2822 34.3521 51.2165C34.0798 51.1617 31.9465 50.9041 30.7665 50.7891C30.0792 50.7178 28.8991 50.6576 27.7061 50.6302C25.6896 50.5808 25.106 50.537 24.0102 50.3507C22.4541 50.0822 20.7229 49.463 19.5364 48.7397L18.9528 48.3891L18.8102 48.5041C18.6351 48.6411 18.6351 48.6356 19.2316 49.3041C21.3778 51.6932 24.6392 53.2329 28.4323 53.6493C29.165 53.726 30.961 53.726 31.5381 53.6384C31.7844 53.6055 32.7181 53.4192 33.6064 53.2329C34.968 52.937 40.1292 51.9452 40.2784 51.9452C40.3043 51.9452 40.3173 51.8685 40.3043 51.7699C40.2848 51.6055 40.2719 51.5945 39.7337 51.4795C38.9492 51.3096 38.424 51.1288 37.1791 50.5973C35.999 50.0986 35.7461 49.9617 35.0005 49.4576C34.4688 49.0959 32.569 47.5069 30.4099 45.6C29.0677 44.4219 28.2507 43.8192 27.7061 43.611C27.3365 43.4685 27.2392 43.4795 27.1874 43.6767Z" fill="#B48484"/>
<path d="M54.5171 51.5123C53.7131 51.5835 52.533 51.7863 51.554 52.0219L50.7694 52.2137L50.322 52.1041C49.732 51.9616 48.5908 51.7534 47.8711 51.6603C46.9958 51.5507 44.7394 51.5671 43.8511 51.6931C42.6127 51.863 42.2236 51.9726 39.4355 52.9644C33.6065 55.0301 33.5093 55.0575 31.4409 55.189C29.4828 55.3096 27.6024 55.052 26.3834 54.4877C25.9944 54.3068 25.9685 54.3014 25.8518 54.389C25.7026 54.4986 25.6961 54.5698 25.8193 54.652C25.8647 54.6849 26.1824 54.8986 26.5131 55.1288C29.1586 56.9479 32.0374 57.7753 35.0459 57.5835C36.0315 57.5233 36.641 57.4192 37.4969 57.1781C39.0465 56.7452 40.7972 55.874 42.5024 54.6904C43.9354 53.7041 44.1429 53.5726 44.7264 53.3205C45.3943 53.0301 45.9713 52.8603 46.5678 52.7726C47.2097 52.674 49.0123 52.7068 49.0058 52.8164C48.9993 52.8329 48.7789 52.937 48.5 53.0411C46.8661 53.6712 44.5449 55.0082 42.6516 56.4164C41.8411 57.0192 40.0385 58.5644 40.071 58.6246C40.0839 58.652 40.473 58.9644 40.9398 59.3315L41.7957 59.9945L42.3144 59.4849C43.7409 58.0877 45.9454 56.2356 47.4497 55.1781C48.4611 54.4603 49.6218 53.7698 50.4387 53.3863L50.8018 53.2164L51.3854 53.474C52.1116 53.8027 53.2917 54.4767 54.2253 55.1014C55.7361 56.1151 57.9017 57.8356 59.2633 59.1068C59.6653 59.4794 60.009 59.7753 60.0349 59.7698C60.0544 59.7589 60.4499 59.452 60.9038 59.0849L61.7272 58.4164L61.3317 58.0383C60.8843 57.6109 59.5032 56.5425 58.6668 55.9671C56.8902 54.7507 54.8154 53.6329 53.1555 53.0082C52.8507 52.8931 52.5914 52.7945 52.5784 52.7835C52.5071 52.7397 52.6627 52.7123 53.3435 52.652C55.2757 52.4712 56.968 52.9644 58.6668 54.1918C59.581 54.8548 61.2669 55.7863 62.4729 56.2959C64.0031 56.9425 65.1572 57.1945 66.8041 57.2438C69.9164 57.3425 72.6072 56.4657 75.3499 54.4712C75.6611 54.2466 75.914 54.0438 75.914 54.0219C75.914 54 75.8621 53.9288 75.7908 53.8575L75.6741 53.737L75.4731 53.8575C74.3514 54.5315 71.9718 54.8986 69.7024 54.7452C67.9518 54.6301 68.0231 54.6466 61.7467 52.5753C59.4449 51.8192 59.0947 51.7205 58.0508 51.5835C57.3052 51.4849 55.3146 51.4411 54.5171 51.5123Z" fill="#B48484"/>
</svg>
